<?xml version="1.0" encoding="utf-8"?>
<!-- Generator: Adobe Illustrator 16.0.0, SVG Export Plug-In . SVG Version: 6.00 Build 0)  -->
<svg version="1.2" baseProfile="tiny" id="Layer_1" xmlns="http://www.w3.org/2000/svg" xmlns:xlink="http://www.w3.org/1999/xlink"
	 x="0px" y="0px" width="284px" height="140.79px" viewBox="0 0 284 140.79" xml:space="preserve">
<g>
	<rect x="28.227" y="34.909" fill="none" width="105.602" height="62.865"/>
	<path fill="#F26622" d="M51.895,35.602h2.292l-3.64,10.708h-2.476l-3.633-10.708h2.293l2.014,6.372
		c0.112,0.376,0.229,0.814,0.348,1.314c0.119,0.501,0.194,0.849,0.224,1.044c0.054-0.449,0.237-1.235,0.55-2.358L51.895,35.602z"/>
	<path fill="#F26622" d="M62.65,42.2c0,1.334-0.352,2.376-1.055,3.128s-1.683,1.128-2.937,1.128c-0.787,0-1.48-0.172-2.08-0.517
		c-0.602-0.344-1.063-0.839-1.385-1.483s-0.483-1.396-0.483-2.256c0-1.337,0.349-2.377,1.048-3.119
		c0.697-0.742,1.68-1.114,2.943-1.114c0.787,0,1.48,0.172,2.08,0.513c0.602,0.343,1.063,0.833,1.385,1.473S62.65,41.342,62.65,42.2z
		 M56.989,42.2c0,0.812,0.133,1.424,0.398,1.839s0.699,0.622,1.301,0.622c0.596,0,1.023-0.206,1.285-0.618
		c0.261-0.413,0.392-1.026,0.392-1.843c0-0.81-0.132-1.418-0.396-1.823s-0.695-0.608-1.297-0.608c-0.596,0-1.025,0.202-1.289,0.604
		C57.12,40.776,56.989,41.386,56.989,42.2z"/>
	<path fill="#F26622" d="M67.671,46.456c-2.549,0-3.822-1.398-3.822-4.197c0-1.391,0.346-2.454,1.039-3.189
		c0.693-0.734,1.688-1.103,2.981-1.103c0.947,0,1.797,0.186,2.549,0.558l-0.659,1.729c-0.352-0.142-0.679-0.258-0.981-0.349
		c-0.303-0.09-0.605-0.136-0.908-0.136c-1.162,0-1.743,0.826-1.743,2.477c0,1.602,0.581,2.402,1.743,2.402
		c0.43,0,0.827-0.058,1.194-0.173c0.365-0.114,0.732-0.294,1.098-0.538v1.912c-0.361,0.229-0.727,0.388-1.094,0.476
		C68.698,46.412,68.233,46.456,67.671,46.456z"/>
	<path fill="#F26622" d="M75.614,46.456c-1.318,0-2.349-0.363-3.091-1.092c-0.742-0.727-1.113-1.758-1.113-3.09
		c0-1.372,0.343-2.434,1.029-3.183c0.686-0.75,1.634-1.125,2.845-1.125c1.158,0,2.059,0.33,2.703,0.989s0.967,1.57,0.967,2.732
		v1.084h-5.281c0.025,0.635,0.213,1.13,0.564,1.486s0.845,0.535,1.479,0.535c0.493,0,0.96-0.052,1.399-0.154s0.898-0.266,1.377-0.49
		v1.729c-0.391,0.195-0.809,0.34-1.253,0.436C76.796,46.408,76.254,46.456,75.614,46.456z M77.035,37.22
		c-0.767-0.454-1.338-0.884-1.714-1.289c-0.381,0.396-0.939,0.825-1.678,1.289h-1.486v-0.198c0.923-0.923,1.548-1.658,1.875-2.205
		h2.615c0.15,0.254,0.413,0.6,0.787,1.037c0.373,0.437,0.736,0.826,1.088,1.168v0.198H77.035z M75.3,39.557
		c-0.475,0-0.846,0.15-1.113,0.45c-0.27,0.301-0.423,0.727-0.462,1.278h3.135c-0.01-0.552-0.153-0.978-0.433-1.278
		C76.149,39.707,75.772,39.557,75.3,39.557z"/>
	<path fill="#F26622" d="M90.08,43.878c0,0.84-0.292,1.479-0.875,1.919c-0.584,0.439-1.456,0.659-2.618,0.659
		c-0.596,0-1.104-0.04-1.523-0.121c-0.42-0.08-0.813-0.198-1.18-0.355v-1.846c0.415,0.196,0.883,0.359,1.402,0.491
		c0.521,0.132,0.979,0.198,1.373,0.198c0.811,0,1.217-0.234,1.217-0.703c0-0.176-0.055-0.319-0.162-0.429
		c-0.107-0.11-0.293-0.234-0.557-0.374c-0.264-0.139-0.615-0.301-1.055-0.486c-0.629-0.264-1.092-0.508-1.388-0.732
		s-0.511-0.482-0.645-0.773c-0.134-0.29-0.201-0.648-0.201-1.072c0-0.728,0.282-1.291,0.846-1.688
		c0.564-0.398,1.364-0.598,2.399-0.598c0.986,0,1.945,0.215,2.878,0.646l-0.674,1.611c-0.41-0.176-0.794-0.32-1.149-0.433
		c-0.357-0.112-0.721-0.169-1.092-0.169c-0.659,0-0.988,0.179-0.988,0.535c0,0.2,0.105,0.373,0.318,0.52
		c0.212,0.146,0.678,0.364,1.395,0.652c0.641,0.259,1.109,0.501,1.406,0.725c0.299,0.226,0.518,0.484,0.66,0.777
		C90.009,43.124,90.08,43.473,90.08,43.878z"/>
	<path fill="#F26622" d="M96.874,46.31l-0.433-1.113h-0.059c-0.376,0.474-0.763,0.802-1.161,0.985
		c-0.398,0.183-0.916,0.274-1.557,0.274c-0.785,0-1.404-0.225-1.855-0.674c-0.453-0.449-0.678-1.089-0.678-1.919
		c0-0.869,0.303-1.51,0.912-1.923c0.607-0.412,1.523-0.641,2.75-0.685l1.42-0.044v-0.359c0-0.829-0.424-1.244-1.273-1.244
		c-0.654,0-1.424,0.197-2.308,0.593l-0.739-1.509c0.941-0.493,1.986-0.739,3.135-0.739c1.098,0,1.94,0.238,2.526,0.718
		c0.586,0.479,0.879,1.206,0.879,2.182v5.457H96.874z M96.214,42.516l-0.863,0.029c-0.65,0.02-1.133,0.137-1.451,0.352
		c-0.316,0.215-0.476,0.542-0.476,0.981c0,0.63,0.361,0.945,1.084,0.945c0.518,0,0.931-0.149,1.241-0.447s0.465-0.693,0.465-1.187
		V42.516z"/>
	<path fill="#F26622" d="M105.14,37.967c0.967,0,1.723,0.378,2.27,1.132c0.547,0.755,0.82,1.789,0.82,3.102
		c0,1.354-0.281,2.4-0.846,3.143s-1.332,1.113-2.303,1.113c-0.963,0-1.717-0.349-2.264-1.047h-0.154l-0.373,0.9h-1.707V34.913h2.234
		v2.651c0,0.337-0.029,0.877-0.088,1.618h0.088C103.34,38.373,104.114,37.967,105.14,37.967z M104.421,39.755
		c-0.551,0-0.954,0.169-1.208,0.509c-0.254,0.339-0.386,0.899-0.396,1.681v0.242c0,0.879,0.131,1.508,0.393,1.889
		c0.26,0.381,0.674,0.572,1.24,0.572c0.459,0,0.824-0.212,1.096-0.634c0.271-0.423,0.406-1.036,0.406-1.843
		c0-0.805-0.137-1.409-0.41-1.813C105.269,39.956,104.896,39.755,104.421,39.755z"/>
	<path fill="#F26622" d="M113.632,46.456c-1.318,0-2.35-0.363-3.092-1.092c-0.742-0.727-1.113-1.758-1.113-3.09
		c0-1.372,0.344-2.434,1.029-3.183c0.686-0.75,1.635-1.125,2.846-1.125c1.157,0,2.059,0.33,2.703,0.989s0.967,1.57,0.967,2.732
		v1.084h-5.281c0.024,0.635,0.213,1.13,0.564,1.486s0.844,0.535,1.479,0.535c0.494,0,0.96-0.052,1.399-0.154s0.898-0.266,1.377-0.49
		v1.729c-0.391,0.195-0.808,0.34-1.253,0.436C114.813,46.408,114.271,46.456,113.632,46.456z M113.316,39.557
		c-0.474,0-0.845,0.15-1.113,0.45c-0.269,0.301-0.423,0.727-0.462,1.278h3.135c-0.01-0.552-0.153-0.978-0.432-1.278
		C114.166,39.707,113.79,39.557,113.316,39.557z"/>
	<path fill="#F26622" d="M43.677,67.779l-0.432-1.113h-0.059c-0.377,0.474-0.764,0.802-1.161,0.985
		c-0.398,0.183-0.917,0.274-1.557,0.274c-0.786,0-1.405-0.225-1.856-0.674c-0.452-0.449-0.678-1.089-0.678-1.919
		c0-0.869,0.304-1.51,0.912-1.923c0.607-0.412,1.524-0.641,2.75-0.685l1.421-0.044v-0.359c0-0.829-0.425-1.244-1.274-1.244
		c-0.654,0-1.424,0.197-2.307,0.593l-0.74-1.509c0.942-0.493,1.987-0.74,3.135-0.74c1.099,0,1.941,0.24,2.527,0.719
		s0.879,1.206,0.879,2.182v5.457H43.677z M43.018,63.985l-0.864,0.029c-0.649,0.02-1.133,0.137-1.45,0.352s-0.476,0.542-0.476,0.981
		c0,0.63,0.361,0.945,1.084,0.945c0.518,0,0.931-0.149,1.241-0.447c0.31-0.298,0.465-0.693,0.465-1.187V63.985z"/>
	<path fill="#F26622" d="M49.979,67.926c-0.962,0-1.718-0.373-2.267-1.121c-0.55-0.746-0.824-1.781-0.824-3.105
		c0-1.342,0.279-2.389,0.839-3.138c0.559-0.75,1.329-1.124,2.311-1.124c1.03,0,1.816,0.4,2.358,1.201h0.073
		c-0.112-0.61-0.168-1.155-0.168-1.634v-2.622h2.24v11.396h-1.713l-0.433-1.063h-0.095C51.794,67.523,51.02,67.926,49.979,67.926z
		 M50.763,66.146c0.572,0,0.99-0.166,1.257-0.498c0.266-0.332,0.411-0.896,0.436-1.692v-0.241c0-0.879-0.136-1.51-0.406-1.891
		c-0.271-0.381-0.712-0.57-1.322-0.57c-0.498,0-0.886,0.211-1.161,0.633c-0.275,0.423-0.414,1.037-0.414,1.842
		c0,0.807,0.14,1.41,0.418,1.813C49.848,65.944,50.245,66.146,50.763,66.146z"/>
	<path fill="#F26622" d="M64.061,67.779h-2.233v-4.783c0-0.59-0.1-1.033-0.297-1.329c-0.197-0.295-0.51-0.442-0.934-0.442
		c-0.572,0-0.986,0.21-1.246,0.629c-0.258,0.421-0.388,1.111-0.388,2.073v3.853h-2.233v-8.188h1.706l0.3,1.048h0.125
		c0.22-0.376,0.537-0.671,0.952-0.883c0.415-0.213,0.892-0.318,1.429-0.318c1.225,0,2.055,0.4,2.49,1.201h0.197
		c0.22-0.381,0.543-0.677,0.971-0.887c0.427-0.21,0.909-0.314,1.446-0.314c0.928,0,1.63,0.237,2.106,0.714
		c0.475,0.476,0.713,1.239,0.713,2.288v5.34h-2.24v-4.783c0-0.59-0.1-1.033-0.297-1.329c-0.197-0.295-0.51-0.442-0.934-0.442
		c-0.547,0-0.957,0.195-1.227,0.586c-0.271,0.391-0.407,1.01-0.407,1.859V67.779z"/>
	<path fill="#F26622" d="M71.212,57.475c0-0.728,0.406-1.092,1.217-1.092s1.215,0.364,1.215,1.092c0,0.347-0.102,0.616-0.304,0.809
		c-0.202,0.193-0.507,0.289-0.911,0.289C71.618,58.572,71.212,58.207,71.212,57.475z M73.542,67.779h-2.234v-8.188h2.234V67.779z"/>
	<path fill="#F26622" d="M83.294,67.779H81.06v-4.783c0-0.59-0.104-1.033-0.314-1.329c-0.21-0.295-0.545-0.442-1.004-0.442
		c-0.625,0-1.076,0.208-1.354,0.626c-0.278,0.417-0.417,1.109-0.417,2.076v3.853h-2.234v-8.188h1.707l0.3,1.048h0.124
		c0.25-0.396,0.592-0.695,1.029-0.897c0.438-0.203,0.934-0.304,1.49-0.304c0.953,0,1.676,0.257,2.168,0.772
		c0.494,0.515,0.74,1.259,0.74,2.229V67.779z"/>
	<path fill="#F26622" d="M85.349,57.475c0-0.728,0.405-1.092,1.216-1.092s1.216,0.364,1.216,1.092c0,0.347-0.102,0.616-0.305,0.809
		c-0.202,0.193-0.506,0.289-0.911,0.289C85.754,58.572,85.349,58.207,85.349,57.475z M87.678,67.779h-2.233v-8.188h2.233V67.779z"/>
	<path fill="#F26622" d="M95.585,65.348c0,0.84-0.293,1.479-0.875,1.919c-0.584,0.439-1.457,0.659-2.619,0.659
		c-0.596,0-1.104-0.04-1.523-0.121c-0.42-0.08-0.813-0.198-1.18-0.355v-1.846c0.416,0.196,0.883,0.359,1.402,0.491
		c0.521,0.132,0.979,0.198,1.374,0.198c0.811,0,1.216-0.234,1.216-0.703c0-0.176-0.054-0.319-0.161-0.429
		c-0.107-0.11-0.293-0.234-0.557-0.374c-0.264-0.139-0.615-0.301-1.055-0.486c-0.63-0.264-1.093-0.508-1.388-0.732
		c-0.296-0.225-0.511-0.482-0.645-0.773c-0.135-0.29-0.201-0.648-0.201-1.072c0-0.728,0.281-1.291,0.846-1.688
		c0.564-0.398,1.363-0.597,2.398-0.597c0.986,0,1.945,0.215,2.879,0.645l-0.674,1.611c-0.41-0.176-0.794-0.32-1.15-0.433
		s-0.721-0.169-1.092-0.169c-0.658,0-0.988,0.179-0.988,0.535c0,0.2,0.105,0.373,0.318,0.52s0.678,0.364,1.396,0.652
		c0.64,0.259,1.108,0.501,1.406,0.725c0.298,0.226,0.518,0.484,0.659,0.777S95.585,64.942,95.585,65.348z"/>
	<path fill="#F26622" d="M100.628,66.146c0.391,0,0.859-0.086,1.406-0.257v1.663c-0.557,0.248-1.24,0.373-2.051,0.373
		c-0.895,0-1.545-0.226-1.952-0.678c-0.408-0.451-0.612-1.129-0.612-2.032v-3.948h-1.068v-0.944l1.23-0.747l0.645-1.729h1.428v1.743
		h2.293v1.677h-2.293v3.948c0,0.317,0.089,0.552,0.268,0.703C100.099,66.07,100.335,66.146,100.628,66.146z"/>
	<path fill="#F26622" d="M108.108,59.438c0.303,0,0.555,0.021,0.755,0.065l-0.169,2.095c-0.18-0.049-0.4-0.073-0.658-0.073
		c-0.713,0-1.27,0.183-1.666,0.55c-0.398,0.365-0.598,0.879-0.598,1.537v4.168h-2.234v-8.188h1.692l0.329,1.377h0.11
		c0.254-0.459,0.597-0.829,1.028-1.109C107.132,59.577,107.601,59.438,108.108,59.438z"/>
	<path fill="#F26622" d="M115.4,67.779l-0.433-1.113h-0.059c-0.375,0.474-0.763,0.802-1.16,0.985
		c-0.398,0.183-0.917,0.274-1.557,0.274c-0.786,0-1.405-0.225-1.856-0.674c-0.452-0.449-0.678-1.089-0.678-1.919
		c0-0.869,0.304-1.51,0.912-1.923c0.607-0.412,1.524-0.641,2.75-0.685l1.421-0.044v-0.359c0-0.829-0.425-1.244-1.274-1.244
		c-0.654,0-1.423,0.197-2.308,0.593l-0.739-1.509c0.942-0.493,1.987-0.74,3.135-0.74c1.099,0,1.94,0.24,2.526,0.719
		s0.879,1.206,0.879,2.182v5.457H115.4z M114.741,63.985l-0.864,0.029c-0.649,0.02-1.133,0.137-1.45,0.352s-0.477,0.542-0.477,0.981
		c0,0.63,0.361,0.945,1.084,0.945c0.518,0,0.932-0.149,1.242-0.447c0.31-0.298,0.465-0.693,0.465-1.187V63.985z"/>
	<path fill="#F26622" d="M123.681,59.438c0.303,0,0.555,0.021,0.754,0.065l-0.168,2.095c-0.181-0.049-0.4-0.073-0.659-0.073
		c-0.713,0-1.269,0.183-1.666,0.55c-0.398,0.365-0.597,0.879-0.597,1.537v4.168h-2.234v-8.188h1.691l0.33,1.377h0.109
		c0.254-0.459,0.598-0.829,1.029-1.109C122.703,59.577,123.173,59.438,123.681,59.438z"/>
	<path fill="#F26622" d="M45.603,85.141c0,1.334-0.352,2.376-1.055,3.128s-1.682,1.128-2.937,1.128c-0.786,0-1.479-0.172-2.08-0.517
		c-0.601-0.344-1.062-0.839-1.384-1.483s-0.484-1.396-0.484-2.256c0-1.337,0.35-2.377,1.048-3.119s1.68-1.113,2.944-1.113
		c0.786,0,1.479,0.171,2.08,0.512c0.601,0.343,1.063,0.833,1.385,1.473S45.603,84.282,45.603,85.141z M39.941,85.141
		c0,0.812,0.133,1.424,0.399,1.839c0.266,0.415,0.699,0.622,1.3,0.622c0.596,0,1.024-0.206,1.286-0.618
		c0.26-0.413,0.391-1.026,0.391-1.843c0-0.81-0.131-1.418-0.395-1.823s-0.696-0.608-1.297-0.608c-0.596,0-1.025,0.202-1.289,0.604
		C40.073,83.717,39.941,84.326,39.941,85.141z"/>
	<path fill="#F26622" d="M56.759,86.818c0,0.84-0.293,1.479-0.875,1.919c-0.584,0.439-1.457,0.659-2.619,0.659
		c-0.596,0-1.104-0.04-1.523-0.121c-0.42-0.08-0.813-0.198-1.18-0.355v-1.846c0.416,0.196,0.883,0.359,1.402,0.491
		c0.521,0.132,0.979,0.198,1.374,0.198c0.811,0,1.216-0.234,1.216-0.703c0-0.176-0.054-0.319-0.161-0.429
		c-0.107-0.11-0.293-0.234-0.557-0.374c-0.264-0.139-0.615-0.301-1.055-0.486c-0.63-0.264-1.093-0.508-1.388-0.732
		c-0.296-0.225-0.511-0.482-0.645-0.773c-0.135-0.29-0.201-0.648-0.201-1.072c0-0.728,0.281-1.291,0.846-1.688
		c0.564-0.398,1.363-0.597,2.398-0.597c0.986,0,1.945,0.215,2.879,0.645l-0.674,1.611c-0.41-0.176-0.794-0.32-1.15-0.433
		s-0.721-0.169-1.092-0.169c-0.658,0-0.988,0.179-0.988,0.535c0,0.2,0.105,0.373,0.318,0.52s0.678,0.364,1.396,0.652
		c0.64,0.259,1.108,0.501,1.406,0.725c0.298,0.226,0.518,0.484,0.659,0.777S56.759,86.413,56.759,86.818z"/>
	<path fill="#F26622" d="M62.058,89.396c-1.318,0-2.35-0.363-3.092-1.092c-0.742-0.727-1.113-1.758-1.113-3.09
		c0-1.372,0.344-2.434,1.029-3.183c0.686-0.75,1.635-1.124,2.846-1.124c1.157,0,2.059,0.329,2.703,0.988s0.967,1.57,0.967,2.732
		v1.084h-5.281c0.024,0.635,0.213,1.13,0.564,1.486s0.844,0.535,1.479,0.535c0.494,0,0.96-0.052,1.399-0.154s0.898-0.266,1.377-0.49
		v1.729c-0.391,0.195-0.808,0.34-1.253,0.436C63.239,89.349,62.696,89.396,62.058,89.396z M61.742,82.497
		c-0.474,0-0.845,0.15-1.113,0.45c-0.269,0.301-0.423,0.727-0.462,1.278h3.135c-0.01-0.552-0.153-0.978-0.432-1.278
		C62.592,82.647,62.216,82.497,61.742,82.497z"/>
	<path fill="#F26622" d="M72.864,89.25l-0.301-1.047h-0.117c-0.238,0.381-0.578,0.675-1.018,0.882
		c-0.439,0.208-0.939,0.312-1.502,0.312c-0.961,0-1.687-0.258-2.175-0.772c-0.488-0.516-0.732-1.257-0.732-2.224v-5.339h2.233v4.782
		c0,0.592,0.105,1.034,0.315,1.33c0.21,0.295,0.544,0.443,1.003,0.443c0.625,0,1.077-0.209,1.355-0.627
		c0.278-0.417,0.418-1.109,0.418-2.076v-3.853h2.233v8.188H72.864z"/>
	<path fill="#F26622" d="M80.694,89.25V78.542h2.271v8.833h4.343v1.875H80.694z"/>
	<path fill="#F26622" d="M95.186,89.25h-6.167V78.542h6.167v1.86h-3.896v2.352h3.626v1.859h-3.626v2.762h3.896V89.25z"/>
	<path fill="#F26622" d="M103.824,89.25l-0.776-2.549h-3.904l-0.775,2.549h-2.447L99.7,78.498h2.776l3.794,10.752H103.824z
		 M99.898,76.916c-0.151,0-0.296,0.064-0.437,0.194c-0.139,0.129-0.24,0.325-0.303,0.589h-1.092
		c0.054-0.707,0.255-1.262,0.604-1.662c0.35-0.4,0.813-0.601,1.389-0.601c0.2,0,0.396,0.04,0.59,0.121
		c0.192,0.08,0.383,0.168,0.57,0.264c0.188,0.095,0.373,0.182,0.554,0.26s0.358,0.117,0.534,0.117c0.152,0,0.297-0.063,0.436-0.19
		c0.141-0.127,0.241-0.322,0.305-0.586h1.092c-0.055,0.708-0.258,1.263-0.611,1.662c-0.355,0.401-0.814,0.602-1.381,0.602
		c-0.201,0-0.397-0.041-0.59-0.121c-0.193-0.081-0.384-0.169-0.572-0.264c-0.188-0.096-0.371-0.184-0.553-0.264
		C100.253,76.956,100.074,76.916,99.898,76.916z M102.506,84.797c-0.718-2.31-1.122-3.615-1.212-3.918
		c-0.091-0.303-0.155-0.543-0.194-0.719c-0.161,0.626-0.622,2.171-1.384,4.637H102.506z"/>
	<path fill="#F26622" d="M117.188,83.881c0,1.773-0.439,3.135-1.318,4.088c-0.879,0.951-2.139,1.428-3.779,1.428
		s-2.9-0.477-3.779-1.428c-0.879-0.953-1.318-2.319-1.318-4.102s0.44-3.144,1.321-4.084c0.882-0.939,2.146-1.41,3.791-1.41
		s2.904,0.475,3.775,1.422S117.188,82.104,117.188,83.881z M109.372,83.881c0,1.197,0.228,2.098,0.682,2.703
		s1.133,0.908,2.036,0.908c1.812,0,2.718-1.203,2.718-3.611c0-2.411-0.901-3.617-2.703-3.617c-0.903,0-1.584,0.304-2.043,0.911
		C109.603,81.783,109.372,82.686,109.372,83.881z"/>
	<path fill="#F26622" d="M119.931,85.697v-0.541c0-0.469,0.1-0.877,0.301-1.224c0.199-0.347,0.566-0.715,1.098-1.106
		c0.514-0.365,0.852-0.663,1.015-0.893s0.245-0.486,0.245-0.77c0-0.317-0.117-0.559-0.352-0.725s-0.561-0.25-0.98-0.25
		c-0.732,0-1.568,0.24-2.506,0.719l-0.798-1.604c1.089-0.61,2.243-0.915,3.464-0.915c1.006,0,1.806,0.241,2.399,0.725
		c0.593,0.483,0.89,1.128,0.89,1.934c0,0.537-0.122,1.001-0.366,1.392s-0.708,0.83-1.392,1.318c-0.469,0.347-0.766,0.61-0.89,0.791
		c-0.125,0.181-0.187,0.417-0.187,0.71v0.439H119.931z M119.696,88.203c0-0.41,0.109-0.721,0.33-0.931
		c0.219-0.21,0.539-0.315,0.959-0.315c0.405,0,0.719,0.108,0.941,0.322c0.222,0.216,0.333,0.523,0.333,0.924
		c0,0.386-0.112,0.689-0.337,0.911c-0.225,0.223-0.537,0.333-0.938,0.333c-0.41,0-0.728-0.108-0.952-0.325
		C119.809,88.904,119.696,88.598,119.696,88.203z"/>
</g>
<g>
	<rect x="45.583" y="104.242" fill="none" width="68.102" height="12.383"/>
	<path fill="#F26622" d="M56.168,111.083c0,0.754-0.273,1.342-0.82,1.764s-1.289,0.633-2.227,0.633
		c-1.016,0-1.797-0.131-2.344-0.393v-0.961c0.352,0.148,0.734,0.266,1.148,0.352s0.824,0.129,1.23,0.129
		c0.664,0,1.164-0.126,1.5-0.378s0.504-0.603,0.504-1.052c0-0.297-0.06-0.54-0.179-0.729s-0.318-0.364-0.598-0.524
		s-0.704-0.342-1.274-0.545c-0.797-0.285-1.366-0.623-1.708-1.014s-0.513-0.9-0.513-1.529c0-0.66,0.248-1.186,0.744-1.576
		s1.152-0.586,1.969-0.586c0.852,0,1.635,0.156,2.35,0.469l-0.311,0.867c-0.707-0.297-1.395-0.445-2.063-0.445
		c-0.527,0-0.939,0.113-1.236,0.34s-0.445,0.541-0.445,0.943c0,0.297,0.055,0.54,0.164,0.729s0.294,0.363,0.554,0.521
		s0.657,0.333,1.192,0.524c0.898,0.32,1.517,0.664,1.854,1.031S56.168,110.497,56.168,111.083z"/>
	<path fill="#F26622" d="M61.603,113.362l-0.193-0.914h-0.047c-0.32,0.402-0.64,0.675-0.958,0.817s-0.716,0.214-1.192,0.214
		c-0.637,0-1.136-0.164-1.497-0.492s-0.542-0.795-0.542-1.4c0-1.297,1.037-1.977,3.111-2.039l1.09-0.035v-0.398
		c0-0.504-0.108-0.876-0.325-1.116s-0.563-0.36-1.04-0.36c-0.535,0-1.141,0.164-1.816,0.492l-0.299-0.744
		c0.316-0.172,0.663-0.307,1.04-0.404s0.755-0.146,1.134-0.146c0.766,0,1.333,0.17,1.702,0.51s0.554,0.885,0.554,1.635v4.383H61.603
		z M59.405,112.677c0.605,0,1.081-0.166,1.427-0.498s0.519-0.797,0.519-1.395v-0.58l-0.973,0.041
		c-0.773,0.027-1.331,0.147-1.673,0.36s-0.513,0.544-0.513,0.993c0,0.352,0.106,0.619,0.319,0.803S59.022,112.677,59.405,112.677z"
		/>
	<path fill="#F26622" d="M64.125,105.2c0-0.223,0.055-0.386,0.164-0.489s0.246-0.155,0.41-0.155c0.156,0,0.291,0.053,0.404,0.158
		s0.17,0.268,0.17,0.486s-0.057,0.382-0.17,0.489s-0.248,0.161-0.404,0.161c-0.164,0-0.301-0.054-0.41-0.161
		S64.125,105.419,64.125,105.2z M65.18,113.362h-0.973v-6.422h0.973V113.362z"/>
	<path fill="#F26622" d="M70.11,106.835c0.844,0,1.5,0.288,1.967,0.864s0.699,1.392,0.699,2.446s-0.234,1.874-0.705,2.458
		s-1.125,0.876-1.961,0.876c-0.418,0-0.799-0.077-1.145-0.231s-0.637-0.392-0.871-0.712h-0.07l-0.205,0.826h-0.697v-9.117h0.973
		v2.215c0,0.496-0.016,0.941-0.047,1.336h0.047C68.548,107.155,69.22,106.835,70.11,106.835z M69.97,107.649
		c-0.664,0-1.143,0.19-1.436,0.571s-0.439,1.022-0.439,1.925s0.15,1.548,0.451,1.937s0.783,0.583,1.447,0.583
		c0.598,0,1.043-0.218,1.336-0.653s0.439-1.062,0.439-1.878c0-0.836-0.146-1.459-0.439-1.869S70.583,107.649,69.97,107.649z"/>
	<path fill="#F26622" d="M78.306,113.362l-0.193-0.914h-0.047c-0.32,0.402-0.641,0.675-0.959,0.817s-0.715,0.214-1.191,0.214
		c-0.637,0-1.137-0.164-1.498-0.492s-0.541-0.795-0.541-1.4c0-1.297,1.037-1.977,3.111-2.039l1.09-0.035v-0.398
		c0-0.504-0.109-0.876-0.326-1.116s-0.563-0.36-1.039-0.36c-0.535,0-1.141,0.164-1.816,0.492l-0.299-0.744
		c0.316-0.172,0.662-0.307,1.039-0.404s0.756-0.146,1.135-0.146c0.766,0,1.332,0.17,1.701,0.51s0.555,0.885,0.555,1.635v4.383
		H78.306z M76.108,112.677c0.605,0,1.08-0.166,1.426-0.498s0.52-0.797,0.52-1.395v-0.58l-0.973,0.041
		c-0.773,0.027-1.332,0.147-1.674,0.36s-0.512,0.544-0.512,0.993c0,0.352,0.105,0.619,0.318,0.803S75.726,112.677,76.108,112.677z"
		/>
	<path fill="#F26622" d="M92.093,113.362v-4.178c0-0.512-0.109-0.896-0.328-1.151s-0.559-0.384-1.02-0.384
		c-0.605,0-1.053,0.174-1.342,0.521s-0.434,0.883-0.434,1.605v3.586h-0.973v-4.178c0-0.512-0.109-0.896-0.328-1.151
		s-0.561-0.384-1.025-0.384c-0.609,0-1.057,0.183-1.34,0.548s-0.424,0.964-0.424,1.796v3.369h-0.973v-6.422h0.791l0.158,0.879h0.047
		c0.184-0.313,0.441-0.557,0.775-0.732s0.709-0.264,1.123-0.264c1.004,0,1.66,0.363,1.969,1.09h0.047
		c0.191-0.336,0.469-0.602,0.832-0.797s0.777-0.293,1.242-0.293c0.727,0,1.27,0.187,1.631,0.56s0.543,0.97,0.543,1.79v4.189H92.093z
		"/>
	<path fill="#F26622" d="M98.898,113.362l-0.193-0.914h-0.047c-0.32,0.402-0.64,0.675-0.958,0.817s-0.716,0.214-1.192,0.214
		c-0.637,0-1.136-0.164-1.497-0.492s-0.542-0.795-0.542-1.4c0-1.297,1.037-1.977,3.111-2.039l1.09-0.035v-0.398
		c0-0.504-0.108-0.876-0.325-1.116s-0.563-0.36-1.04-0.36c-0.535,0-1.141,0.164-1.816,0.492l-0.299-0.744
		c0.316-0.172,0.663-0.307,1.04-0.404s0.755-0.146,1.134-0.146c0.766,0,1.333,0.17,1.702,0.51s0.554,0.885,0.554,1.635v4.383H98.898
		z M96.701,112.677c0.605,0,1.081-0.166,1.427-0.498s0.519-0.797,0.519-1.395v-0.58l-0.973,0.041
		c-0.773,0.027-1.331,0.147-1.673,0.36s-0.513,0.544-0.513,0.993c0,0.352,0.106,0.619,0.319,0.803S96.318,112.677,96.701,112.677z"
		/>
	<path fill="#F26622" d="M101.421,105.2c0-0.223,0.055-0.386,0.164-0.489s0.246-0.155,0.41-0.155c0.156,0,0.291,0.053,0.404,0.158
		s0.17,0.268,0.17,0.486s-0.057,0.382-0.17,0.489s-0.248,0.161-0.404,0.161c-0.164,0-0.301-0.054-0.41-0.161
		S101.421,105.419,101.421,105.2z M102.476,113.362h-0.973v-6.422h0.973V113.362z"/>
	<path fill="#F26622" d="M108.561,111.61c0,0.598-0.223,1.059-0.668,1.383s-1.07,0.486-1.875,0.486
		c-0.852,0-1.516-0.135-1.992-0.404v-0.902c0.309,0.156,0.64,0.279,0.993,0.369s0.694,0.135,1.022,0.135
		c0.508,0,0.898-0.081,1.172-0.243s0.41-0.409,0.41-0.741c0-0.25-0.108-0.464-0.325-0.642s-0.64-0.388-1.269-0.63
		c-0.598-0.223-1.022-0.417-1.274-0.583s-0.439-0.354-0.563-0.565s-0.185-0.463-0.185-0.756c0-0.523,0.213-0.937,0.639-1.239
		s1.01-0.454,1.752-0.454c0.691,0,1.367,0.141,2.027,0.422l-0.346,0.791c-0.645-0.266-1.229-0.398-1.752-0.398
		c-0.461,0-0.809,0.072-1.043,0.217s-0.352,0.344-0.352,0.598c0,0.172,0.044,0.318,0.132,0.439s0.229,0.236,0.425,0.346
		s0.57,0.268,1.125,0.475c0.762,0.277,1.276,0.557,1.544,0.838S108.561,111.185,108.561,111.61z"/>
</g>
<g>
	<path fill-rule="evenodd" fill="none" d="M262.901,39.723c-6.337-17.625-26.143-36.412-54.572-34.925
		c-25.885,1.359-43.09,19.72-48.24,35.003c4.922,0,9.748,0,14.569,0c-5.437,3.772-10.974,7.031-16.414,10.445
		c-0.832,0.521-1.626,1.68-1.769,2.642c-0.954,6.427-0.654,12.836,0.729,19.187c1.307,5.978,3.464,11.613,6.796,17.011
		c1.947-3.203,3.788-6.223,5.626-9.246c0.436,5.407,0.375,10.607,0.486,15.808c0.021,0.973,0.482,2.148,1.14,2.856
		c2.552,2.767,5.305,5.349,7.913,8.063c1.874,1.952,3.639,4.007,5.634,6.21c1.397-2.271,2.413-3.911,3.424-5.556
		c0.169,0.051,0.337,0.101,0.504,0.147c0,2.365-0.114,4.738,0.058,7.094c0.068,0.977,0.508,2.139,1.18,2.828
		c4.383,4.524,8.907,8.914,13.318,13.415c2.67,2.724,5.223,5.564,7.846,8.37c0.786-0.711,1.101-0.969,1.386-1.255
		c6.249-6.248,12.396-12.603,18.794-18.692c2.234-2.131,3.328-4.291,2.942-7.328c-0.183-1.462-0.032-2.962-0.032-4.446
		c0.179-0.011,0.357-0.026,0.54-0.035c1.028,1.642,2.063,3.287,3.08,4.917c4.89-4.82,9.644-9.454,14.306-14.183
		c0.528-0.536,0.711-1.604,0.725-2.435c0.064-4.313,0.018-8.632,0.015-12.945c0-0.911,0-1.82,0-2.73
		c0.153-0.019,0.304-0.037,0.458-0.054c1.837,3.009,3.671,6.019,5.522,9.049c0.157-0.14,0.222-0.177,0.253-0.231
		c6.809-11.292,9.025-23.508,7.273-36.491c-0.088-0.664-0.789-1.421-1.411-1.812c-3.359-2.117-6.784-4.128-10.18-6.184
		c-2.248-1.354-4.486-2.727-6.73-4.093c0.054-0.136,0.101-0.272,0.157-0.404C253.054,39.723,257.884,39.723,262.901,39.723z"/>
	<path fill-rule="evenodd" fill="#F26622" d="M262.901,39.723c-5.018,0-9.848,0-14.676,0c-0.057,0.132-0.104,0.268-0.157,0.404
		c2.244,1.366,4.482,2.738,6.73,4.093c3.396,2.056,6.82,4.066,10.18,6.184c0.622,0.391,1.323,1.147,1.411,1.812
		c1.752,12.983-0.465,25.199-7.273,36.491c-0.031,0.055-0.096,0.092-0.253,0.231c-1.852-3.03-3.686-6.04-5.522-9.049
		c-0.154,0.017-0.305,0.035-0.458,0.054c0,0.91,0,1.819,0,2.73c0.003,4.313,0.05,8.633-0.015,12.945
		c-0.014,0.83-0.196,1.898-0.725,2.435c-4.662,4.729-9.416,9.362-14.306,14.183c-1.018-1.63-2.052-3.275-3.08-4.917
		c-0.183,0.009-0.361,0.024-0.54,0.035c0,1.484-0.15,2.984,0.032,4.446c0.386,3.037-0.708,5.197-2.942,7.328
		c-6.397,6.09-12.545,12.444-18.794,18.692c-0.285,0.286-0.6,0.544-1.386,1.255c-2.623-2.806-5.176-5.646-7.846-8.37
		c-4.411-4.501-8.936-8.891-13.318-13.415c-0.672-0.689-1.111-1.852-1.18-2.828c-0.172-2.355-0.058-4.729-0.058-7.094
		c-0.167-0.047-0.335-0.097-0.504-0.147c-1.011,1.645-2.026,3.285-3.424,5.556c-1.995-2.203-3.76-4.258-5.634-6.21
		c-2.608-2.715-5.361-5.297-7.913-8.063c-0.657-0.708-1.119-1.884-1.14-2.856c-0.111-5.2-0.051-10.4-0.486-15.808
		c-1.838,3.023-3.679,6.043-5.626,9.246c-3.332-5.397-5.489-11.033-6.796-17.011c-1.383-6.351-1.683-12.76-0.729-19.187
		c0.143-0.962,0.937-2.12,1.769-2.642c5.44-3.414,10.978-6.672,16.414-10.445c-4.821,0-9.647,0-14.569,0
		c5.15-15.284,22.355-33.645,48.24-35.003C236.759,3.311,256.564,22.098,262.901,39.723z M225.765,75.838
		c4.042-4.778,7.988-9.407,11.867-14.094c0.442-0.532,0.836-1.479,0.683-2.087c-1.97-7.678-4.015-15.338-6.138-22.973
		c-0.154-0.554-1.029-1.237-1.619-1.287c-4.074-0.364-8.071-0.221-11.41,2.674c-0.564,0.486-1.35,0.715-1.9,1.212
		c-3.789,3.427-7.406,3.456-11.434,0.125c-3.697-3.059-7.979-4.893-13.063-4.135c-1.322,0.2-1.887,0.593-2.209,1.812
		c-1.908,7.267-3.834,14.529-5.822,21.774c-0.343,1.245-0.196,2.102,0.686,3.117c3.955,4.524,7.797,9.15,11.768,13.848
		c-2.119,1.869-4.132,3.649-6.559,5.792c2.42,0,4.317,0,6.216,0c0.011,0.12,0.021,0.242,0.036,0.358
		c-1.787,0.586-3.575,1.177-5.486,1.807c0.235,0.726,0.428,1.329,0.66,2.055c1.498,0,2.885,0,4.271,0
		c0.016,0.1,0.033,0.2,0.047,0.298c-1.233,0.446-2.467,0.896-3.523,1.278c-0.236,3.05,2.022,2.349,3.941,2.616
		c-1.176,0.462-1.927,0.758-2.652,1.041c-0.129,1.394,0.537,1.733,1.712,1.712c2.946-0.054,5.935,0.274,8.825-0.122
		c1.908-0.265,3.857-1.284,5.43-2.448c0.664-0.494,0.433-2.218,0.594-3.382c0.039-0.271-0.033-0.557,0.024-0.821
		c0.571-2.617-0.819-3.961-2.987-5.029c-1.824-0.897-3.49-2.105-5.674-3.457c6.484,0,12.336,0,18.188,0
		c-1.355,1.248-2.76,2.352-4.343,3.017c-3.014,1.254-4.286,3.303-3.693,6.521c0.192,1.045-0.097,2.611,0.501,3.056
		c1.529,1.147,3.359,2.287,5.193,2.538c3.027,0.407,6.151,0.075,9.232,0.129c1.313,0.021,1.927-0.394,1.615-1.784
		c-0.768-0.293-1.505-0.572-2.537-0.965c3.503-0.279,3.503-0.279,3.939-2.603c-1.158-0.429-2.338-0.865-3.836-1.415
		c4.797-0.566,4.797-0.566,5.068-2.348c-1.783-0.576-3.578-1.151-5.369-1.727c0.029-0.132,0.058-0.265,0.086-0.396
		c1.881,0,3.761,0,6.174,0C229.918,79.479,227.941,77.747,225.765,75.838z M199.993,95.276c5.879,6.229,19.398,4.96,22.654,0
		C215.167,95.276,207.729,95.276,199.993,95.276z"/>
	<path fill-rule="evenodd" fill="#F26622" d="M236.556,54.505c-4.586,2.79-8.91,5.487-13.312,8.055
		c-1.154,0.672-1.647,1.387-1.612,2.733c0.086,3.403,0.028,6.816,0.028,10.227c-0.21,0.019-0.421,0.032-0.628,0.054
		c-1.491-6.912-2.982-13.822-4.533-21.014c2.163-0.546,4.243-1.083,6.331-1.597c1.125-0.282,2.345-0.354,3.366-0.836
		C230.214,50.221,233.149,52.596,236.556,54.505z"/>
	<path fill-rule="evenodd" fill="#F26622" d="M186.311,54.475c2.001-1.07,3.614-1.963,5.261-2.788
		c0.466-0.232,1.07-0.476,1.531-0.372c4.385,1.004,8.746,2.084,13.335,3.2c-1.529,7.112-3.023,14.077-4.518,21.046
		c-0.222-0.012-0.436-0.022-0.654-0.025c0-3.394-0.067-6.782,0.036-10.167c0.043-1.447-0.533-2.189-1.727-2.891
		C195.226,59.932,190.933,57.277,186.311,54.475z"/>
</g>
<rect x="6.372" y="17.894" fill-rule="evenodd" fill="none" stroke="#F26622" stroke-width="2.126" stroke-miterlimit="10" width="273.973" height="106.529"/>
<g>
	<path fill="#F26622" d="M119.47,110.515l-2.89,2.89c-0.1,0.099-0.22,0.148-0.361,0.148c-0.143,0-0.263-0.05-0.361-0.148
		l-0.468-0.489c-0.1-0.099-0.148-0.22-0.148-0.36c0-0.142,0.049-0.263,0.148-0.361l2.04-2.04l-2.04-2.04
		c-0.1-0.099-0.148-0.22-0.148-0.361c0-0.141,0.049-0.262,0.148-0.36l0.468-0.489c0.099-0.099,0.219-0.148,0.361-0.148
		c0.142,0,0.262,0.05,0.361,0.148l2.89,2.89c0.099,0.099,0.148,0.22,0.148,0.361S119.568,110.416,119.47,110.515z"/>
</g>
<g>
</g>
<g>
</g>
<g>
</g>
<g>
</g>
<g>
</g>
<g>
</g>
</svg>
