<?xml version="1.0" encoding="utf-8"?>
<!-- Generator: Adobe Illustrator 16.0.0, SVG Export Plug-In . SVG Version: 6.00 Build 0)  -->
<svg version="1.2" baseProfile="tiny" id="Layer_1" xmlns="http://www.w3.org/2000/svg" xmlns:xlink="http://www.w3.org/1999/xlink"
	 x="0px" y="0px" width="35px" height="35px" viewBox="0 0 35 35" xml:space="preserve">
<g>
	<path fill="#FFFFFF" d="M25.444,25.532c-0.09,0.426-0.349,0.64-0.775,0.64c-4.313,0-7.997-1.528-11.051-4.582
		c-3.055-3.055-4.582-6.738-4.582-11.051c0-0.427,0.213-0.686,0.64-0.775l3.504-0.809C13.606,8.843,13.91,9,14.09,9.427l1.617,3.773
		c0.157,0.359,0.078,0.674-0.236,0.944l-2.021,1.651c0.606,1.325,1.426,2.498,2.46,3.521c1.032,1.021,2.201,1.836,3.503,2.442
		l1.685-2.021c0.247-0.315,0.561-0.394,0.943-0.236l3.774,1.617c0.404,0.179,0.55,0.483,0.438,0.91L25.444,25.532z"/>
</g>
<path fill="#FFFFFF" d="M17.5,2.5c8.271,0,15,6.729,15,15s-6.729,15-15,15s-15-6.729-15-15S9.229,2.5,17.5,2.5 M17.5,0.5
	c-9.389,0-17,7.611-17,17s7.611,17,17,17s17-7.611,17-17S26.889,0.5,17.5,0.5L17.5,0.5z"/>
<g>
</g>
<g>
</g>
<g>
</g>
<g>
</g>
<g>
</g>
<g>
</g>
</svg>
