<?xml version="1.0" encoding="utf-8"?>
<!-- Generator: Adobe Illustrator 16.0.0, SVG Export Plug-In . SVG Version: 6.00 Build 0)  -->
<svg version="1.2" baseProfile="tiny" id="Layer_1" xmlns="http://www.w3.org/2000/svg" xmlns:xlink="http://www.w3.org/1999/xlink"
	 x="0px" y="0px" width="432px" height="174.551px" viewBox="0 0 432 174.551" xml:space="preserve">
<g>
	<g>
		<path d="M184.346,97.565l5.259,1.767c-0.354,1.64-0.909,3.008-1.669,4.107c-0.761,1.099-1.703,1.928-2.829,2.487
			c-1.127,0.56-2.558,0.84-4.299,0.84c-2.112,0-3.835-0.342-5.174-1.022c-1.337-0.682-2.494-1.881-3.464-3.598
			c-0.974-1.717-1.457-3.913-1.457-6.591c0-3.569,0.854-6.313,2.563-8.229c1.71-1.918,4.127-2.877,7.253-2.877
			c2.448,0,4.37,0.549,5.771,1.648c1.4,1.099,2.44,2.787,3.121,5.064l-5.3,1.31c-0.187-0.657-0.381-1.138-0.583-1.442
			c-0.336-0.51-0.745-0.902-1.231-1.178c-0.486-0.274-1.029-0.412-1.631-0.412c-1.359,0-2.401,0.607-3.126,1.824
			c-0.548,0.9-0.822,2.318-0.822,4.248c0,2.393,0.328,4.031,0.98,4.918c0.653,0.888,1.572,1.332,2.758,1.332
			c1.146,0,2.015-0.359,2.601-1.076C183.654,99.971,184.079,98.93,184.346,97.565z"/>
		<path d="M191.766,95.622c0-3.522,0.883-6.267,2.649-8.229c1.767-1.964,4.227-2.944,7.381-2.944c3.231,0,5.723,0.964,7.471,2.892
			c1.749,1.929,2.624,4.63,2.624,8.104c0,2.523-0.381,4.59-1.146,6.205c-0.763,1.615-1.866,2.871-3.313,3.768
			c-1.444,0.899-3.244,1.349-5.397,1.349c-2.191,0-4.004-0.388-5.44-1.163c-1.434-0.775-2.599-2.002-3.489-3.681
			C192.211,100.244,191.766,98.145,191.766,95.622z M197.767,95.651c0,2.179,0.366,3.744,1.093,4.696
			c0.729,0.951,1.721,1.428,2.976,1.428c1.29,0,2.288-0.466,2.995-1.398c0.706-0.933,1.06-2.605,1.06-5.02
			c0-2.031-0.371-3.516-1.108-4.454c-0.737-0.937-1.735-1.405-3-1.405c-1.209,0-2.182,0.477-2.914,1.429
			C198.133,91.878,197.767,93.453,197.767,95.651z"/>
		<path d="M215.163,84.816h5.604l7.314,11.939V84.816h5.655v21.582h-5.655l-7.273-11.851v11.851h-5.646V84.816z"/>
		<path d="M236.361,84.816h18.243v5.329h-6.119v16.253h-6.003V90.146h-6.121V84.816z"/>
		<path d="M267.421,102.836h-6.813l-0.947,3.563h-6.129l7.302-21.582h6.547l7.299,21.582h-6.285L267.421,102.836z M266.177,98.17
			l-2.146-7.76l-2.12,7.76H266.177z"/>
		<path d="M276.599,84.816h11.237c1.871,0,3.308,0.516,4.312,1.547c1.003,1.03,1.502,2.305,1.502,3.827
			c0,1.274-0.355,2.37-1.072,3.282c-0.477,0.609-1.175,1.09-2.092,1.443c1.396,0.373,2.422,1.014,3.08,1.921
			s0.985,2.048,0.985,3.423c0,1.119-0.232,2.125-0.701,3.018s-1.108,1.6-1.92,2.119c-0.505,0.324-1.265,0.56-2.279,0.707
			c-1.352,0.197-2.25,0.295-2.69,0.295h-10.361V84.816z M282.653,93.281h2.612c0.934,0,1.587-0.179,1.953-0.537
			s0.55-0.875,0.55-1.553c0-0.629-0.184-1.119-0.55-1.473c-0.366-0.353-1.006-0.529-1.915-0.529h-2.65V93.281z M282.653,101.762
			h3.063c1.031,0,1.762-0.204,2.184-0.612c0.425-0.407,0.638-0.954,0.638-1.642c0-0.637-0.21-1.15-0.63-1.538
			c-0.42-0.387-1.154-0.581-2.207-0.581h-3.047V101.762z"/>
		<path d="M297.931,84.816h6.017v21.582h-6.017V84.816z"/>
		<path d="M308.251,84.816h6.003v16.268h9.365v5.314h-15.368V84.816z"/>
		<path d="M326.59,84.816h6.014v21.582h-6.014V84.816z"/>
		<path d="M336.989,84.816h8.917c1.756,0,3.177,0.266,4.26,0.795c1.08,0.53,1.975,1.291,2.684,2.283
			c0.704,0.99,1.219,2.144,1.536,3.459s0.476,2.708,0.476,4.18c0,2.307-0.235,4.096-0.709,5.367
			c-0.471,1.271-1.129,2.336-1.966,3.193c-0.84,0.859-1.741,1.432-2.704,1.715c-1.315,0.394-2.509,0.59-3.576,0.59h-8.917V84.816z
			 M342.99,89.704v11.792h1.472c1.255,0,2.146-0.154,2.676-0.465c0.53-0.309,0.944-0.848,1.247-1.619
			c0.299-0.77,0.447-2.019,0.447-3.745c0-2.288-0.335-3.853-1.006-4.696s-1.784-1.267-3.338-1.267H342.99z"/>
		<path d="M368.792,102.836h-6.813l-0.947,3.563h-6.129l7.302-21.582h6.547l7.299,21.582h-6.285L368.792,102.836z M367.548,98.17
			l-2.146-7.76l-2.12,7.76H367.548z"/>
		<path d="M378.037,84.816h8.917c1.756,0,3.177,0.266,4.26,0.795c1.081,0.53,1.974,1.291,2.683,2.283
			c0.705,0.99,1.219,2.144,1.537,3.459c0.317,1.315,0.476,2.708,0.476,4.18c0,2.307-0.235,4.096-0.709,5.367
			c-0.471,1.271-1.129,2.336-1.966,3.193c-0.84,0.859-1.741,1.432-2.704,1.715c-1.315,0.394-2.509,0.59-3.576,0.59h-8.917V84.816z
			 M384.038,89.704v11.792h1.472c1.255,0,2.146-0.154,2.676-0.465c0.529-0.309,0.944-0.848,1.246-1.619
			c0.3-0.77,0.448-2.019,0.448-3.745c0-2.288-0.335-3.853-1.006-4.696s-1.784-1.267-3.339-1.267H384.038z"/>
		<path d="M399.051,84.816h16.083v4.608h-10.069v3.43h9.343v4.402h-9.343v4.253h10.361v4.889h-16.375V84.816z"/>
	</g>
	<g>
		<path d="M260.323,24.268h15.982v20.469c0,4.297-0.522,7.567-1.566,9.811c-1.045,2.242-3.146,4.144-6.301,5.701
			c-3.157,1.559-7.199,2.336-12.128,2.336c-5.21,0-9.246-0.514-12.109-1.541c-2.864-1.027-5.076-2.532-6.637-4.512
			c-1.561-1.977-2.481-4.424-2.764-7.336l15.244-1.516c0.022,1.662,0.223,2.896,0.599,3.699c0.375,0.807,1.009,1.457,1.899,1.954
			c0.611,0.326,1.48,0.489,2.606,0.489c1.783,0,3.092-0.484,3.925-1.452c0.832-0.966,1.249-2.597,1.249-4.892V24.268z"/>
		<path d="M286.762,24.268h20.972l8.088,22.924l8.03-22.924h20.959v37.674H331.75v-28.73l-10.063,28.73h-11.82l-10.045-28.73v28.73
			h-13.06V24.268z"/>
	</g>
	<g>
		<g>
			<g>
				<polygon fill-rule="evenodd" points="79.227,136.066 81.94,169.58 84.93,169.58 84.93,136.066 79.227,136.066 				"/>
			</g>
		</g>
		<g>
			<g>
				<polygon fill="#FFFFFF" points="79.47,141.217 85.055,141.217 85.055,142.908 79.47,142.908 79.47,141.217 				"/>
			</g>
		</g>
		<g>
			<g>
				<polygon fill="#FFFFFF" points="79.669,144.386 85.055,144.386 85.055,145.918 79.669,145.918 79.669,144.386 				"/>
			</g>
		</g>
		<g>
			<g>
				<polygon fill="#FFFFFF" points="79.973,148.123 85.055,148.123 85.055,149.501 79.973,149.501 79.973,148.123 				"/>
			</g>
		</g>
		<g>
			<g>
				<polygon fill="#FFFFFF" points="80.8,159.991 85.021,159.991 85.021,161.363 80.8,161.363 80.8,159.991 				"/>
			</g>
		</g>
		<g>
			<g>
				<polygon fill="#FFFFFF" points="81.179,163.834 85.005,163.834 85.005,164.725 81.179,164.725 81.179,163.834 				"/>
			</g>
		</g>
		<g>
			<g>
				<path d="M86.555,170.646h-5.952L77.605,135h11.836L86.555,170.646z M82.563,168.514h2.024l2.541-31.381h-7.202L82.563,168.514z"
					/>
			</g>
		</g>
		<g>
			<g>
				<path fill-rule="evenodd" d="M104.608,55.689c-0.844-1.456-1.879-3.109-2.721-4.565c-0.583,1.165-0.973,2.525-1.554,3.692
					C101.628,55.753,103.053,56.045,104.608,55.689L104.608,55.689z"/>
			</g>
		</g>
		<g>
			<g>
				<path fill-rule="evenodd" d="M63.676,55.689c0.843-1.456,1.879-3.109,2.719-4.565c0.584,1.165,0.973,2.525,1.556,3.692
					C66.654,55.753,65.229,56.045,63.676,55.689L63.676,55.689z"/>
			</g>
		</g>
		<g>
			<g>
				<path fill-rule="evenodd" fill="#FFFFFF" d="M92.648,158.331l-12.886-2.997c-4.664,1.414-8.826,3.764-11.931,8.252
					c-1.713,2.479-0.072,4.234,2.623,2.231c3.777-2.813,6.42-6.681,10.625-6.952C84.932,158.617,88.828,158.881,92.648,158.331
					L92.648,158.331z"/>
			</g>
			<g>
				<path d="M68.357,167.399c-0.002,0-0.002,0-0.002,0c-0.763,0-1.384-0.354-1.706-0.967c-0.453-0.862-0.234-2.048,0.6-3.251
					c2.865-4.145,6.777-6.854,12.308-8.528c0.12-0.036,0.246-0.04,0.367-0.011l12.886,2.996c0.334,0.078,0.564,0.381,0.549,0.722
					c-0.014,0.343-0.27,0.626-0.607,0.675c-2.389,0.344-4.825,0.375-7.182,0.404c-1.461,0.021-2.973,0.04-4.443,0.136
					c-2.722,0.175-4.745,2.009-7.089,4.135c-0.993,0.899-2.019,1.829-3.157,2.677C69.99,167.05,69.117,167.399,68.357,167.399z
					 M79.788,156.072c-5.111,1.578-8.728,4.098-11.369,7.918c-0.568,0.82-0.665,1.486-0.51,1.782
					c0.026,0.05,0.107,0.204,0.446,0.204c0.002,0,0.002,0,0.002,0c0.258,0,0.82-0.097,1.674-0.73
					c1.082-0.805,2.083-1.713,3.051-2.591c2.435-2.208,4.735-4.295,7.952-4.499c1.508-0.098,3.037-0.117,4.518-0.138
					c0.8-0.011,1.61-0.021,2.423-0.044L79.788,156.072z"/>
			</g>
		</g>
		<g>
			<g>
				<path d="M77.396,160.734c-0.102,0-0.206-0.023-0.303-0.07l-1.581-0.748c-0.354-0.168-0.506-0.592-0.337-0.946
					c0.168-0.354,0.592-0.508,0.946-0.338l1.579,0.747c0.356,0.167,0.507,0.594,0.338,0.947
					C77.917,160.583,77.662,160.734,77.396,160.734z"/>
			</g>
		</g>
		<g>
			<g>
				<path d="M73.346,161.029c-0.053,0-0.105-0.006-0.159-0.018l-2.089-0.473c-0.383-0.088-0.623-0.469-0.536-0.853
					c0.087-0.382,0.467-0.623,0.852-0.536l2.089,0.474c0.384,0.087,0.623,0.469,0.536,0.851
					C73.964,160.806,73.671,161.029,73.346,161.029z M78.952,158.558c-0.087,0-0.177-0.017-0.262-0.052l-2.853-1.137
					c-0.363-0.146-0.541-0.562-0.396-0.925c0.146-0.366,0.56-0.544,0.925-0.396l2.851,1.138c0.364,0.146,0.543,0.558,0.396,0.925
					C79.503,158.389,79.235,158.558,78.952,158.558z"/>
			</g>
		</g>
		<g>
			<g>
				<path fill-rule="evenodd" fill="#FFFFFF" d="M90.536,158.331c9.908-2.944,17.626-8.235,13.993-17.223
					c-3.13-7.741-10.743-8.956-19.025-9.58c-15.304-1.151-20.018-6.847-18.794-12.433c0.801-3.654,4.053-5.91,7.83-6.848
					c5.248-1.297,10.515-1.795,15.75-2.459l-18.173-7.174c-2.391,0.563-4.648,1.301-6.74,2.32
					c-5.298,3.744-9.176,7.929-9.222,13.055c-0.104,11.834,8.691,16.466,16.53,19.512c6.604,2.567,13.539,2.662,20.407,4.142
					c7.104,1.527,6.887,7.487-0.991,10.903c-2.852,1.234-5.727,2.42-8.589,3.633C86.044,157.116,88.006,157.396,90.536,158.331
					L90.536,158.331z"/>
			</g>
			<g>
				<path d="M90.536,159.041c-0.083,0-0.166-0.014-0.247-0.041c-1.235-0.459-2.312-0.751-3.452-1.059
					c-1.119-0.303-2.276-0.613-3.571-1.094c-0.274-0.1-0.459-0.358-0.465-0.65c-0.007-0.292,0.165-0.559,0.434-0.672
					c0.997-0.423,1.997-0.843,2.997-1.262c1.835-0.77,3.732-1.566,5.587-2.37c3.714-1.61,5.891-3.92,5.682-6.029
					c-0.164-1.651-1.824-2.938-4.558-3.525c-2.42-0.521-4.897-0.876-7.292-1.218c-4.372-0.627-8.892-1.273-13.224-2.957
					c-8.456-3.287-17.088-8.255-16.983-20.181c0.042-4.736,3.068-9.067,9.522-13.629c0.032-0.021,0.065-0.041,0.101-0.06
					c2.007-0.977,4.26-1.752,6.887-2.371c0.142-0.035,0.289-0.025,0.425,0.03l18.172,7.173c0.304,0.119,0.487,0.429,0.446,0.751
					c-0.041,0.321-0.294,0.575-0.616,0.616c-0.914,0.116-1.83,0.228-2.746,0.339c-4.243,0.513-8.631,1.044-12.922,2.105
					c-3.981,0.987-6.646,3.286-7.308,6.312c-0.43,1.963-0.043,3.771,1.151,5.377c1.769,2.373,6.152,5.375,17.002,6.193
					c8.467,0.637,16.34,1.881,19.632,10.021c1.275,3.156,1.285,6.078,0.029,8.684c-1.934,4.016-6.806,7.207-14.479,9.488
					C90.673,159.033,90.605,159.041,90.536,159.041z M85.532,156.1c0.561,0.168,1.11,0.316,1.676,0.469
					c1.056,0.285,2.146,0.58,3.352,1.014c7.044-2.127,11.668-5.124,13.378-8.675c1.074-2.229,1.051-4.764-0.067-7.532
					c-2.985-7.384-10.417-8.535-18.42-9.138c-9.011-0.679-15.247-3.017-18.035-6.763c-1.432-1.922-1.915-4.178-1.4-6.529
					c0.783-3.573,3.829-6.267,8.355-7.387c4.363-1.08,8.784-1.617,13.06-2.134l-15.366-6.066c-2.408,0.58-4.479,1.3-6.323,2.19
					c-6.016,4.263-8.836,8.219-8.873,12.446c-0.099,11.033,7.668,15.576,16.075,18.845c4.179,1.624,8.419,2.229,12.91,2.872
					c2.419,0.346,4.921,0.704,7.389,1.237c3.378,0.725,5.445,2.467,5.675,4.777c0.276,2.786-2.166,5.58-6.531,7.475
					c-1.862,0.805-3.764,1.602-5.604,2.375C86.365,155.75,85.948,155.926,85.532,156.1z"/>
			</g>
		</g>
		<g>
			<g>
				<path d="M62.248,123.117c-0.249,0-0.49-0.13-0.62-0.363c-0.193-0.34-0.072-0.773,0.27-0.966l3.989-2.252
					c0.344-0.192,0.777-0.073,0.969,0.271c0.193,0.342,0.073,0.775-0.27,0.969l-3.989,2.25
					C62.485,123.089,62.366,123.117,62.248,123.117z M62.304,117.848c-0.383,0-0.699-0.305-0.711-0.689
					c-0.011-0.393,0.297-0.721,0.69-0.734l4.46-0.133c0.396-0.009,0.722,0.297,0.733,0.69c0.012,0.393-0.299,0.721-0.69,0.731
					l-4.461,0.135C62.319,117.848,62.312,117.848,62.304,117.848z M69.652,114.949c-0.035,0-0.071-0.004-0.107-0.008l-4.33-0.66
					c-0.389-0.061-0.656-0.422-0.596-0.812c0.059-0.386,0.423-0.651,0.811-0.597l4.329,0.662c0.39,0.058,0.655,0.422,0.597,0.809
					C70.302,114.697,69.998,114.949,69.652,114.949z M72.931,113.434c-0.1,0-0.199-0.021-0.296-0.064l-4.623-2.115
					c-0.357-0.161-0.514-0.585-0.351-0.941c0.162-0.356,0.585-0.516,0.941-0.352l4.624,2.115c0.358,0.162,0.515,0.585,0.353,0.941
					C73.458,113.279,73.201,113.434,72.931,113.434z M76.933,112.445c-0.155,0-0.312-0.051-0.44-0.152l-3.674-2.897
					c-0.309-0.243-0.361-0.69-0.118-0.999c0.243-0.307,0.69-0.361,0.999-0.119l3.674,2.897c0.309,0.243,0.36,0.692,0.117,0.999
					C77.352,112.354,77.143,112.445,76.933,112.445z"/>
			</g>
		</g>
		<g>
			<g>
				<path d="M64.754,128.314c-0.164,0-0.329-0.056-0.464-0.174c-0.297-0.256-0.33-0.703-0.075-1l2.509-2.919
					c0.258-0.297,0.705-0.331,1.002-0.075c0.299,0.256,0.333,0.703,0.077,1.003l-2.509,2.916
					C65.153,128.229,64.953,128.314,64.754,128.314z"/>
			</g>
		</g>
		<g>
			<g>
				<path d="M67.085,135.223c-0.269,0-0.527-0.154-0.647-0.416l-1.964-4.305c-0.163-0.359-0.006-0.781,0.352-0.942
					c0.358-0.164,0.779-0.005,0.942,0.351l1.964,4.307c0.163,0.358,0.006,0.779-0.353,0.941
					C67.284,135.203,67.185,135.223,67.085,135.223z M69.47,132.143c-0.007,0-0.012,0-0.019,0c-0.393-0.012-0.703-0.336-0.692-0.729
					l0.109-4.302c0.01-0.386,0.326-0.694,0.712-0.694c0.005,0,0.011,0.003,0.018,0.003c0.392,0.008,0.703,0.335,0.693,0.727
					l-0.111,4.303C70.17,131.837,69.854,132.143,69.47,132.143z M61.535,131.317c-0.384,0-0.7-0.306-0.71-0.691l-0.151-5.364
					c-0.012-0.391,0.299-0.718,0.69-0.73c0.006,0,0.014,0,0.021,0c0.383,0,0.699,0.307,0.71,0.691l0.151,5.363
					c0.011,0.393-0.298,0.719-0.691,0.731C61.55,131.317,61.542,131.317,61.535,131.317z M57.954,126.351
					c-0.081,0-0.161-0.012-0.242-0.041c-0.369-0.134-0.56-0.543-0.427-0.911l2.086-5.758c0.134-0.369,0.543-0.559,0.911-0.426
					c0.37,0.133,0.561,0.543,0.427,0.912l-2.087,5.755C58.519,126.172,58.246,126.351,57.954,126.351z M56.452,117.092
					c-0.29,0-0.564-0.182-0.669-0.473c-0.133-0.371,0.061-0.775,0.43-0.909l3.505-1.252c0.37-0.132,0.777,0.061,0.909,0.431
					c0.133,0.371-0.061,0.777-0.431,0.908l-3.503,1.254C56.613,117.077,56.531,117.092,56.452,117.092z M58.953,112.002
					c-0.353,0-0.659-0.263-0.705-0.623c-0.049-0.39,0.228-0.746,0.618-0.795l4.006-0.5c0.391-0.051,0.745,0.227,0.794,0.617
					c0.048,0.389-0.229,0.746-0.617,0.795l-4.006,0.5C59.013,112,58.984,112.002,58.953,112.002z"/>
			</g>
		</g>
		<g>
			<g>
				<path d="M97.341,144.229c-0.122,0-0.247-0.032-0.36-0.099c-0.338-0.198-0.451-0.634-0.253-0.974l1.437-2.44
					c0.2-0.338,0.635-0.452,0.975-0.253c0.339,0.2,0.451,0.637,0.252,0.975l-1.437,2.439
					C97.821,144.103,97.584,144.229,97.341,144.229z M94.462,142.825c-0.039,0-0.082-0.004-0.124-0.011
					c-0.385-0.068-0.644-0.438-0.576-0.824l0.646-3.662c0.068-0.387,0.435-0.646,0.824-0.576c0.387,0.069,0.646,0.438,0.576,0.823
					l-0.646,3.663C95.101,142.582,94.802,142.825,94.462,142.825z M91.624,142.012c-0.331,0-0.628-0.233-0.696-0.57l-0.721-3.517
					c-0.078-0.386,0.17-0.761,0.555-0.839c0.385-0.08,0.762,0.17,0.84,0.555l0.719,3.517c0.078,0.384-0.169,0.761-0.554,0.84
					C91.718,142.006,91.67,142.012,91.624,142.012z M87.979,141.438c-0.268,0-0.523-0.15-0.645-0.41l-2.082-4.453
					c-0.166-0.354-0.013-0.777,0.344-0.945c0.355-0.164,0.778-0.012,0.945,0.344l2.083,4.453c0.165,0.355,0.012,0.78-0.345,0.945
					C88.184,141.417,88.081,141.438,87.979,141.438z M82.595,140.473c-0.242,0-0.478-0.125-0.611-0.349l-2.872-4.811
					c-0.201-0.338-0.091-0.775,0.246-0.976c0.338-0.201,0.774-0.091,0.975,0.246l2.873,4.813c0.201,0.338,0.091,0.773-0.246,0.975
					C82.844,140.44,82.719,140.473,82.595,140.473z M75.288,138.777c-0.319,0-0.608-0.217-0.689-0.539l-1.293-5.172
					c-0.096-0.379,0.138-0.768,0.518-0.862c0.38-0.096,0.767,0.138,0.862,0.519l1.293,5.17c0.095,0.381-0.137,0.768-0.519,0.863
					C75.402,138.77,75.345,138.777,75.288,138.777z M80.655,133.988c-0.023,0-0.046-0.001-0.07-0.004
					c-0.391-0.037-0.678-0.385-0.639-0.775l0.216-2.225c0.037-0.391,0.383-0.678,0.775-0.641c0.393,0.039,0.678,0.387,0.641,0.777
					l-0.217,2.225C81.326,133.713,81.016,133.988,80.655,133.988z M76.682,132.244c-0.197,0-0.395-0.082-0.535-0.244
					c-0.259-0.295-0.229-0.744,0.066-1.003l1.149-1.003c0.296-0.261,0.745-0.23,1.004,0.066c0.259,0.295,0.228,0.743-0.066,1.003
					l-1.149,1.005C77.015,132.187,76.848,132.244,76.682,132.244z M72.65,131.732c-0.175,0-0.354-0.066-0.49-0.196
					c-0.284-0.272-0.294-0.724-0.024-1.007l1.508-1.58c0.271-0.283,0.723-0.295,1.007-0.024c0.284,0.272,0.294,0.724,0.022,1.007
					l-1.507,1.58C73.025,131.658,72.839,131.732,72.65,131.732z"/>
			</g>
		</g>
		<g>
			<g>
				<path d="M85.537,134.635c-0.046,0-0.093-0.005-0.141-0.014c-0.385-0.076-0.634-0.452-0.557-0.838l0.437-2.174
					c0.077-0.386,0.45-0.635,0.837-0.559c0.386,0.077,0.635,0.452,0.557,0.838l-0.435,2.174
					C86.166,134.402,85.869,134.635,85.537,134.635z"/>
			</g>
		</g>
		<g>
			<g>
				<path d="M89.846,135.139c-0.014,0-0.026,0-0.039,0c-0.394-0.021-0.692-0.359-0.672-0.75l0.13-2.346
					c0.022-0.392,0.365-0.692,0.749-0.672c0.394,0.021,0.692,0.359,0.671,0.75l-0.129,2.346
					C90.535,134.846,90.22,135.139,89.846,135.139z"/>
			</g>
		</g>
		<g>
			<g>
				<path d="M95.948,153.42c-0.069,0-0.14-0.01-0.208-0.031l-2.555-0.783c-0.375-0.115-0.586-0.512-0.471-0.889
					c0.115-0.373,0.512-0.585,0.887-0.47l2.555,0.782c0.376,0.115,0.586,0.514,0.471,0.889
					C96.533,153.224,96.253,153.42,95.948,153.42z M97.047,150.069c-0.378,0-0.694-0.297-0.709-0.68
					c-0.019-0.394,0.285-0.725,0.678-0.743l2.671-0.115c0.385-0.021,0.725,0.286,0.742,0.678c0.017,0.393-0.288,0.725-0.681,0.742
					l-2.669,0.118C97.068,150.069,97.059,150.069,97.047,150.069z M98.413,146.421c-0.29,0-0.562-0.177-0.667-0.464
					c-0.138-0.368,0.05-0.777,0.418-0.914l2.529-0.943c0.365-0.137,0.777,0.049,0.914,0.42c0.138,0.367-0.05,0.777-0.418,0.914
					l-2.529,0.943C98.578,146.406,98.494,146.421,98.413,146.421z M104.424,141.891c-0.054,0-0.11-0.008-0.165-0.021l-2.73-0.646
					c-0.382-0.089-0.618-0.474-0.527-0.856c0.091-0.381,0.473-0.619,0.856-0.527l2.729,0.646c0.383,0.092,0.619,0.475,0.528,0.857
					C105.038,141.67,104.746,141.891,104.424,141.891z M97.6,137.438c-0.326,0-0.619-0.226-0.692-0.557
					c-0.086-0.385,0.156-0.765,0.54-0.85l3.231-0.718c0.38-0.085,0.763,0.156,0.849,0.54c0.084,0.385-0.156,0.764-0.54,0.85
					l-3.232,0.717C97.703,137.432,97.651,137.438,97.6,137.438z M93.437,135.21c-0.231,0-0.459-0.112-0.596-0.321
					c-0.216-0.329-0.123-0.77,0.206-0.984l2.081-1.363c0.329-0.217,0.77-0.124,0.984,0.203c0.217,0.329,0.124,0.771-0.205,0.986
					l-2.081,1.363C93.706,135.173,93.57,135.21,93.437,135.21z"/>
			</g>
		</g>
		<g>
			<g>
				<path d="M97.046,156.432c-0.146,0-0.294-0.045-0.42-0.139l-1.317-0.964c-0.316-0.233-0.386-0.677-0.152-0.995
					c0.231-0.314,0.677-0.385,0.993-0.152l1.316,0.963c0.317,0.233,0.386,0.679,0.154,0.995
					C97.48,156.33,97.265,156.432,97.046,156.432z"/>
			</g>
		</g>
		<g>
			<g>
				<path d="M99.983,154.844c-0.007,0-0.013,0-0.02,0c-0.393-0.01-0.702-0.338-0.692-0.73l0.075-2.783
					c0.012-0.393,0.335-0.693,0.731-0.692c0.393,0.012,0.703,0.338,0.691,0.729l-0.076,2.785
					C100.684,154.538,100.367,154.844,99.983,154.844z M102.813,147.205c-0.387,0-0.703-0.309-0.711-0.698
					c-0.008-0.392,0.305-0.717,0.698-0.724l2.518-0.051c0.005,0,0.009,0,0.015,0c0.385,0,0.702,0.31,0.71,0.697
					c0.008,0.394-0.304,0.717-0.696,0.727l-2.52,0.049C102.822,147.205,102.817,147.205,102.813,147.205z"/>
			</g>
		</g>
		<g>
			<g>
				<path fill-rule="evenodd" fill="#FFFFFF" d="M65.377,104.936c9.136-4.08,19.657-3.648,30.785-5.607
					c14.37-2.525,22.428-9.47,25.825-16.727c2.994-6.398,1.792-11.484-2.676-16.41c-5.012-5.525-9.912-3.708-13.587-7.879
					c3.192,0.561,6.628,1.43,9.818,1.867c-2.077-1.879-4.362-3.316-7.938-4.509c-1.546-0.517-2.342-3.352,1.285-2.843
					c2.822,0.395,4.552,0.498,7.364,0.52c2.92,0.023,5.047,1.966,6.62,4.805c2.396,4.32,5.103,8.105,6.773,12.754
					c2.565,7.137,0.857,15.138-4.63,21.947c-4.711,5.846-10.552,9.695-17.108,12.627c-5.51,2.467-11.113,3.459-16.755,4.197
					L65.377,104.936L65.377,104.936z"/>
			</g>
			<g>
				<path d="M91.155,110.391c-0.043,0-0.087-0.004-0.129-0.014l-25.778-4.741c-0.307-0.058-0.54-0.306-0.576-0.616
					c-0.037-0.309,0.131-0.607,0.415-0.732c6.198-2.768,12.958-3.488,20.116-4.25c3.518-0.375,7.154-0.761,10.835-1.408
					c16.742-2.941,23.04-11.494,25.305-16.328c2.734-5.845,1.946-10.666-2.559-15.63c-2.548-2.81-5.04-3.619-7.451-4.401
					c-2.211-0.718-4.3-1.395-6.141-3.486c-0.201-0.227-0.236-0.555-0.089-0.818c0.148-0.264,0.447-0.404,0.744-0.352
					c1.298,0.228,2.657,0.51,3.971,0.783c1.034,0.215,2.088,0.434,3.131,0.631c-1.612-1.107-3.382-1.952-5.569-2.682
					c-1.131-0.378-1.938-1.605-1.763-2.68c0.062-0.377,0.421-1.61,2.469-1.61c0.278,0,0.583,0.023,0.903,0.067
					c2.645,0.371,4.343,0.49,7.271,0.514c2.913,0.021,5.349,1.762,7.237,5.172c0.688,1.236,1.411,2.45,2.11,3.623
					c1.8,3.016,3.498,5.863,4.71,9.234c2.646,7.359,0.916,15.608-4.746,22.635c-4.349,5.396-9.868,9.473-17.371,12.829
					c-5.326,2.385-10.629,3.426-16.953,4.255C91.216,110.388,91.187,110.391,91.155,110.391z M67.917,104.68l23.257,4.279
					c6.149-0.811,11.307-1.828,16.446-4.127c7.289-3.262,12.642-7.21,16.844-12.425c5.343-6.631,6.989-14.38,4.515-21.26
					c-1.164-3.241-2.83-6.032-4.593-8.986c-0.706-1.183-1.435-2.405-2.133-3.664c-1.646-2.968-3.609-4.42-6.003-4.438
					c-3.001-0.022-4.742-0.146-7.46-0.525c-0.254-0.037-0.491-0.055-0.704-0.055c-0.233,0-1.002,0.029-1.064,0.416
					c-0.058,0.354,0.305,0.932,0.809,1.102c3.376,1.125,5.825,2.518,8.19,4.654c0.231,0.209,0.298,0.545,0.168,0.828
					c-0.132,0.283-0.433,0.448-0.743,0.404c-1.928-0.264-3.955-0.686-5.916-1.094c-0.392-0.08-0.789-0.164-1.186-0.244
					c1.051,0.6,2.19,0.97,3.428,1.371c2.469,0.803,5.264,1.709,8.066,4.799c4.877,5.376,5.766,10.837,2.794,17.189
					c-2.382,5.084-8.972,14.072-26.348,17.126c-3.727,0.655-7.389,1.044-10.931,1.422C79.181,102.109,73.309,102.734,67.917,104.68z
					"/>
			</g>
		</g>
		<g>
			<g>
				<path d="M102.561,108.117c-0.113,0-0.227-0.027-0.333-0.084l-4.907-2.596c-0.347-0.184-0.479-0.615-0.295-0.961
					c0.183-0.349,0.612-0.48,0.96-0.297l4.907,2.597c0.348,0.183,0.479,0.614,0.296,0.962
					C103.061,107.977,102.814,108.117,102.561,108.117z M109.727,105.139c-0.054,0-0.11-0.006-0.166-0.018l-5.986-1.426
					c-0.382-0.092-0.62-0.474-0.527-0.857c0.089-0.382,0.474-0.617,0.856-0.525l5.986,1.422c0.383,0.093,0.619,0.477,0.527,0.857
					C110.341,104.919,110.049,105.139,109.727,105.139z M91.154,104.26c-0.379,0-0.693-0.3-0.709-0.684l-0.146-3.457
					c-0.016-0.393,0.287-0.724,0.681-0.74c0.388-0.02,0.725,0.289,0.741,0.681l0.145,3.459c0.016,0.392-0.288,0.724-0.681,0.738
					C91.175,104.26,91.165,104.26,91.154,104.26z M98.979,102.625c-0.166,0-0.334-0.059-0.47-0.178l-2.872-2.529
					c-0.295-0.259-0.324-0.709-0.064-1.004c0.26-0.293,0.709-0.321,1.005-0.063l2.871,2.529c0.296,0.26,0.324,0.707,0.064,1.004
					C99.374,102.545,99.177,102.625,98.979,102.625z M116.761,101.336c-0.007,0-0.015,0-0.022,0l-6.273-0.189
					c-0.392-0.013-0.7-0.341-0.688-0.733c0.012-0.392,0.339-0.703,0.732-0.69l6.272,0.191c0.393,0.012,0.702,0.34,0.689,0.732
					C117.459,101.031,117.144,101.336,116.761,101.336z M105.845,100.851c-0.11,0-0.222-0.026-0.327-0.081l-3.928-2.041
					c-0.349-0.18-0.483-0.611-0.304-0.957c0.182-0.35,0.612-0.486,0.96-0.305l3.927,2.04c0.351,0.183,0.485,0.612,0.305,0.96
					C106.35,100.71,106.103,100.851,105.845,100.851z M112.223,97.697c-0.068,0-0.136-0.01-0.204-0.031l-4.108-1.229
					c-0.377-0.113-0.591-0.51-0.478-0.887c0.112-0.376,0.509-0.588,0.884-0.477l4.109,1.229c0.376,0.112,0.59,0.509,0.478,0.885
					C112.812,97.497,112.528,97.697,112.223,97.697z M117.768,96.992c-0.313,0-0.601-0.209-0.686-0.525
					c-0.104-0.379,0.121-0.77,0.5-0.872l5.634-1.528c0.376-0.104,0.769,0.121,0.872,0.499c0.103,0.38-0.122,0.772-0.501,0.874
					l-5.632,1.527C117.892,96.983,117.829,96.992,117.768,96.992z M117.522,93.808c-0.028,0-0.058-0.003-0.086-0.005l-4.006-0.481
					c-0.391-0.048-0.668-0.401-0.622-0.792c0.049-0.39,0.403-0.668,0.792-0.621l4.006,0.48c0.39,0.048,0.667,0.402,0.621,0.793
					C118.184,93.543,117.877,93.808,117.522,93.808z M122.953,91.795c-0.247,0-0.487-0.131-0.618-0.361
					c-0.194-0.34-0.074-0.773,0.267-0.969l5.423-3.08c0.341-0.193,0.775-0.074,0.969,0.267c0.194,0.342,0.075,0.777-0.268,0.972
					l-5.422,3.08C123.192,91.765,123.072,91.795,122.953,91.795z M122.294,88.822c-0.006,0-0.013-0.002-0.018-0.002l-3.813-0.094
					c-0.393-0.01-0.703-0.336-0.692-0.729c0.01-0.386,0.326-0.694,0.71-0.694c0.006,0,0.012,0,0.019,0l3.813,0.097
					c0.392,0.009,0.702,0.337,0.693,0.729C122.996,88.515,122.68,88.822,122.294,88.822z M126.265,85.728
					c-0.182,0-0.363-0.07-0.503-0.208c-0.277-0.278-0.277-0.728,0-1.006l4.295-4.295c0.279-0.279,0.729-0.279,1.006-0.002
					c0.278,0.279,0.278,0.729,0,1.006l-4.294,4.297C126.629,85.657,126.447,85.728,126.265,85.728z M121.907,83.539
					c-0.348,0-0.651-0.256-0.701-0.611c-0.057-0.389,0.214-0.748,0.603-0.805l3.539-0.506c0.388-0.053,0.748,0.215,0.805,0.604
					c0.055,0.39-0.215,0.75-0.604,0.805l-3.538,0.507C121.976,83.536,121.94,83.539,121.907,83.539z M127.695,79.617
					c-0.127,0-0.255-0.034-0.37-0.104c-0.336-0.205-0.44-0.644-0.235-0.979l2.863-4.68c0.206-0.335,0.644-0.438,0.979-0.234
					c0.334,0.205,0.44,0.643,0.234,0.979l-2.864,4.679C128.169,79.498,127.935,79.617,127.695,79.617z M123.644,78.375
					c-0.275,0-0.538-0.162-0.653-0.43c-0.157-0.36,0.01-0.779,0.37-0.936l2.672-1.154c0.359-0.156,0.778,0.009,0.936,0.37
					c0.155,0.359-0.01,0.779-0.371,0.936l-2.672,1.155C123.833,78.355,123.738,78.375,123.644,78.375z M113.302,59.789
					c-0.076,0-0.152-0.014-0.229-0.037l-7.301-2.483c-0.371-0.127-0.57-0.531-0.443-0.903c0.126-0.371,0.529-0.57,0.903-0.443
					l7.299,2.48c0.371,0.129,0.571,0.531,0.446,0.904C113.875,59.602,113.599,59.789,113.302,59.789z"/>
			</g>
		</g>
		<g>
			<g>
				<path fill-rule="evenodd" fill="#FFFFFF" d="M99.761,135.128c6.385-2.993,12.892-7.026,12.7-17.055
					c-0.101-5.127-3.85-10.048-9.555-13.138c-8.796-4.766-19.659-3.648-30.784-5.607c-14.372-2.525-22.427-9.47-25.825-16.727
					c-2.995-6.398-1.792-11.484,2.675-16.41c5.011-5.525,9.911-3.708,13.585-7.879c-3.189,0.561-6.627,1.43-9.816,1.867
					c2.076-1.879,4.363-3.316,7.938-4.509c1.546-0.517,2.341-3.352-1.286-2.843c-2.821,0.395-4.554,0.498-7.365,0.52
					c-2.918,0.021-5.045,1.967-6.62,4.805c-2.395,4.32-5.101,8.105-6.771,12.754c-2.566,7.136-0.856,15.138,4.629,21.947
					c4.711,5.843,10.553,9.695,17.108,12.627c10.902,4.88,22.172,3.994,33.37,6.768c3.776,0.938,8.02,3.193,8.822,6.848
					c0.965,4.4-4.221,9.51-13.173,12.8C93.308,132.369,96.912,133.213,99.761,135.128L99.761,135.128z"/>
			</g>
			<g>
				<path d="M99.761,135.84c-0.14,0-0.278-0.043-0.397-0.121c-2.382-1.602-5.483-2.563-10.055-3.116
					c-0.326-0.04-0.584-0.298-0.622-0.624c-0.038-0.327,0.153-0.637,0.461-0.751c8.497-3.122,13.609-7.936,12.722-11.978
					c-0.728-3.317-4.763-5.435-8.298-6.312c-4.291-1.063-8.678-1.593-12.921-2.105c-6.777-0.819-13.786-1.667-20.567-4.703
					c-7.502-3.356-13.021-7.434-17.371-12.829c-5.662-7.026-7.393-15.277-4.746-22.635c1.212-3.371,2.911-6.219,4.71-9.234
					c0.7-1.173,1.424-2.387,2.109-3.623c1.894-3.41,4.327-5.15,7.238-5.172c2.929-0.023,4.627-0.143,7.271-0.514
					c0.32-0.044,0.623-0.067,0.9-0.067c2.05,0,2.41,1.234,2.472,1.612c0.175,1.074-0.633,2.3-1.762,2.678
					c-2.188,0.729-3.959,1.576-5.571,2.682c1.045-0.197,2.101-0.418,3.137-0.633c1.312-0.272,2.669-0.554,3.964-0.781
					c0.299-0.052,0.596,0.088,0.744,0.352c0.147,0.264,0.112,0.592-0.087,0.818c-1.842,2.092-3.93,2.769-6.142,3.486
					c-2.411,0.782-4.904,1.592-7.45,4.401c-4.505,4.966-5.294,9.786-2.557,15.63c2.263,4.834,8.562,13.387,25.303,16.328
					c3.696,0.65,7.393,0.961,10.965,1.26c7.229,0.607,14.056,1.182,20.035,4.421c6.113,3.313,9.824,8.452,9.927,13.749
					c0.091,4.739-1.24,8.553-4.067,11.66c-2.545,2.793-5.999,4.627-9.042,6.053C99.967,135.818,99.864,135.84,99.761,135.84z
					 M92.093,131.578c3.25,0.584,5.705,1.459,7.725,2.736c5.937-2.816,12.115-6.69,11.932-16.229
					c-0.093-4.777-3.524-9.46-9.183-12.524c-5.717-3.098-12.398-3.659-19.474-4.255c-3.605-0.303-7.334-0.615-11.094-1.276
					c-17.375-3.054-23.965-12.042-26.346-17.126c-2.973-6.35-2.087-11.811,2.791-17.189c2.802-3.09,5.598-3.996,8.065-4.799
					c1.239-0.401,2.379-0.77,3.428-1.371c-0.394,0.08-0.788,0.162-1.178,0.242c-1.963,0.408-3.993,0.832-5.923,1.096
					c-0.311,0.044-0.609-0.121-0.742-0.404c-0.132-0.283-0.063-0.619,0.169-0.828c2.361-2.135,4.812-3.527,8.19-4.654
					c0.504-0.169,0.865-0.746,0.809-1.101c-0.063-0.387-0.835-0.417-1.068-0.417c-0.212,0-0.448,0.018-0.702,0.055
					c-2.715,0.379-4.457,0.503-7.459,0.525c-2.393,0.018-4.356,1.469-6.004,4.438c-0.697,1.259-1.427,2.481-2.131,3.663
					c-1.764,2.955-3.429,5.746-4.593,8.987c-2.477,6.879-0.83,14.629,4.513,21.26c4.204,5.215,9.557,9.163,16.846,12.425
					c6.585,2.947,13.177,3.744,20.157,4.589c4.286,0.519,8.718,1.054,13.092,2.138c1.918,0.474,8.254,2.41,9.346,7.387
					C104.226,123.345,99.898,128.162,92.093,131.578z"/>
			</g>
		</g>
		<g>
			<g>
				<path d="M106.745,123.403c-0.119,0-0.239-0.03-0.35-0.093l-3.987-2.252c-0.344-0.193-0.464-0.627-0.271-0.969
					c0.193-0.341,0.626-0.464,0.969-0.27l3.988,2.252c0.342,0.193,0.462,0.627,0.27,0.969
					C107.233,123.271,106.992,123.403,106.745,123.403z M105.978,117.848c-0.007,0-0.014,0-0.021,0l-4.46-0.135
					c-0.393-0.011-0.7-0.339-0.689-0.731c0.013-0.394,0.337-0.704,0.732-0.69l4.459,0.133c0.394,0.014,0.702,0.342,0.69,0.734
					C106.677,117.543,106.36,117.848,105.978,117.848z M98.63,114.949c-0.347,0-0.648-0.252-0.702-0.605
					c-0.06-0.387,0.207-0.751,0.595-0.809l4.331-0.662c0.387-0.055,0.751,0.211,0.811,0.597c0.059,0.39-0.208,0.751-0.597,0.812
					l-4.33,0.66C98.7,114.945,98.665,114.949,98.63,114.949z M95.354,113.434c-0.271,0-0.527-0.154-0.648-0.416
					c-0.162-0.356-0.005-0.779,0.353-0.941l4.621-2.115c0.357-0.164,0.779-0.005,0.942,0.352s0.006,0.78-0.351,0.941l-4.622,2.115
					C95.553,113.412,95.453,113.434,95.354,113.434z M91.351,112.445c-0.21,0-0.419-0.092-0.56-0.271
					c-0.243-0.307-0.189-0.756,0.119-0.999l3.675-2.897c0.308-0.242,0.756-0.188,0.999,0.119c0.243,0.309,0.189,0.756-0.119,0.999
					l-3.674,2.897C91.66,112.395,91.504,112.445,91.351,112.445z M85.268,111.318c-0.191,0-0.382-0.078-0.521-0.229
					c-0.268-0.287-0.252-0.738,0.036-1.004l4.089-3.804c0.288-0.267,0.737-0.249,1.005,0.036c0.268,0.289,0.251,0.738-0.036,1.006
					l-4.089,3.802C85.614,111.254,85.44,111.318,85.268,111.318z M78.995,110.559c-0.206,0-0.409-0.088-0.55-0.26
					c-0.251-0.302-0.207-0.75,0.095-1l4.373-3.614c0.304-0.251,0.752-0.208,1.001,0.096c0.251,0.302,0.209,0.751-0.095,1.001
					l-4.373,3.613C79.314,110.506,79.153,110.559,78.995,110.559z M74.146,109.988c-0.182,0-0.363-0.07-0.503-0.209
					c-0.276-0.277-0.276-0.729,0-1.005l3.137-3.138c0.277-0.279,0.729-0.276,1.006,0c0.277,0.278,0.277,0.729,0,1.006l-3.137,3.137
					C74.511,109.918,74.329,109.988,74.146,109.988z M65.723,108.117c-0.254,0-0.5-0.141-0.629-0.379
					c-0.183-0.348-0.051-0.779,0.296-0.962l4.907-2.597c0.347-0.184,0.776-0.052,0.961,0.297c0.183,0.346,0.051,0.777-0.296,0.961
					l-4.906,2.596C65.95,108.09,65.835,108.117,65.723,108.117z M58.557,105.139c-0.322,0-0.614-0.22-0.691-0.547
					c-0.091-0.381,0.145-0.765,0.526-0.857l5.988-1.422c0.384-0.092,0.767,0.144,0.856,0.525c0.091,0.384-0.145,0.766-0.526,0.857
					l-5.988,1.426C58.667,105.133,58.61,105.139,58.557,105.139z M51.523,101.336c-0.383,0-0.698-0.305-0.71-0.689
					c-0.012-0.393,0.296-0.721,0.688-0.732l6.273-0.191c0.391-0.006,0.721,0.299,0.732,0.69c0.012,0.393-0.297,0.721-0.688,0.733
					l-6.273,0.189C51.538,101.336,51.531,101.336,51.523,101.336z M50.517,96.992c-0.062,0-0.124-0.009-0.188-0.025l-5.632-1.527
					c-0.381-0.102-0.604-0.494-0.501-0.874c0.103-0.378,0.494-0.603,0.873-0.499l5.633,1.528c0.379,0.103,0.603,0.493,0.5,0.872
					C51.117,96.783,50.83,96.992,50.517,96.992z M45.331,91.795c-0.119,0-0.239-0.03-0.352-0.092l-5.423-3.08
					c-0.342-0.194-0.461-0.63-0.268-0.972c0.194-0.341,0.628-0.46,0.97-0.267l5.423,3.08c0.343,0.195,0.462,0.629,0.268,0.969
					C45.818,91.664,45.578,91.795,45.331,91.795z M42.02,85.728c-0.183,0-0.364-0.07-0.502-0.208l-4.298-4.297
					c-0.277-0.277-0.277-0.727,0-1.006c0.278-0.277,0.729-0.277,1.005,0l4.298,4.297c0.277,0.278,0.277,0.728,0,1.006
					C42.383,85.657,42.201,85.728,42.02,85.728z M40.588,79.617c-0.24,0-0.475-0.119-0.609-0.34L37.116,74.6
					c-0.205-0.336-0.1-0.773,0.235-0.979c0.336-0.204,0.773-0.098,0.979,0.234l2.862,4.68c0.206,0.335,0.1,0.773-0.234,0.979
					C40.842,79.583,40.713,79.617,40.588,79.617z M54.982,59.789c-0.296,0-0.572-0.188-0.673-0.482
					c-0.127-0.371,0.072-0.775,0.444-0.904l7.298-2.48c0.373-0.127,0.775,0.072,0.902,0.443c0.126,0.372-0.073,0.776-0.444,0.903
					l-7.298,2.483C55.137,59.775,55.059,59.789,54.982,59.789z"/>
			</g>
		</g>
		<g>
			<g>
				<path d="M103.529,128.314c-0.201,0-0.398-0.085-0.54-0.249l-2.508-2.916c-0.256-0.3-0.223-0.747,0.075-1.003
					c0.299-0.256,0.748-0.222,1.004,0.075l2.508,2.919c0.256,0.297,0.223,0.744-0.076,1
					C103.858,128.259,103.693,128.314,103.529,128.314z"/>
			</g>
		</g>
		<g>
			<g>
				<path d="M101.005,135.094c-0.099,0-0.198-0.021-0.295-0.065c-0.356-0.161-0.514-0.584-0.352-0.942l1.965-4.305
					c0.164-0.359,0.585-0.516,0.943-0.352c0.357,0.162,0.515,0.583,0.351,0.941l-1.965,4.307
					C101.533,134.938,101.275,135.094,101.005,135.094z M98.813,132.143c-0.384,0-0.7-0.306-0.711-0.693l-0.109-4.303
					c-0.011-0.392,0.299-0.719,0.692-0.727c0.006,0,0.013-0.003,0.019-0.003c0.385,0,0.7,0.309,0.711,0.694l0.11,4.302
					c0.01,0.394-0.3,0.718-0.693,0.729C98.826,132.143,98.819,132.143,98.813,132.143z M106.749,131.317c-0.008,0-0.016,0-0.022,0
					c-0.393-0.013-0.701-0.339-0.689-0.731l0.15-5.363c0.011-0.392,0.339-0.695,0.73-0.691c0.393,0.013,0.702,0.34,0.69,0.73
					l-0.149,5.364C107.447,131.012,107.132,131.317,106.749,131.317z M110.329,126.351c-0.291,0-0.563-0.179-0.668-0.469
					l-2.087-5.755c-0.135-0.369,0.058-0.779,0.427-0.912s0.778,0.057,0.911,0.426l2.085,5.758c0.135,0.368-0.056,0.777-0.426,0.911
					C110.491,126.339,110.41,126.351,110.329,126.351z M111.829,117.092c-0.079,0-0.16-0.015-0.239-0.041l-3.502-1.254
					c-0.37-0.131-0.563-0.537-0.431-0.908c0.134-0.37,0.54-0.563,0.909-0.431l3.502,1.252c0.37,0.134,0.563,0.538,0.431,0.909
					C112.396,116.91,112.121,117.092,111.829,117.092z M109.329,112.002c-0.029,0-0.059-0.002-0.09-0.006l-4.005-0.5
					c-0.39-0.049-0.666-0.406-0.617-0.795c0.049-0.391,0.408-0.668,0.794-0.617l4.005,0.5c0.39,0.049,0.666,0.405,0.617,0.795
					C109.988,111.739,109.683,112.002,109.329,112.002z M100.833,108.254c-0.318,0-0.607-0.213-0.689-0.535
					c-0.098-0.381,0.133-0.769,0.513-0.865l3.919-0.998c0.379-0.097,0.767,0.131,0.864,0.514c0.097,0.381-0.132,0.768-0.514,0.864
					l-3.917,0.999C100.95,108.248,100.891,108.254,100.833,108.254z M95.763,105.796c-0.306,0-0.59-0.2-0.681-0.51
					c-0.111-0.376,0.104-0.772,0.481-0.884l3.917-1.151c0.376-0.11,0.771,0.104,0.882,0.479c0.111,0.379-0.104,0.773-0.481,0.885
					l-3.917,1.152C95.897,105.787,95.831,105.796,95.763,105.796z M87.938,104.848c-0.339,0-0.64-0.244-0.7-0.591l-0.469-2.69
					c-0.067-0.385,0.192-0.756,0.579-0.822c0.388-0.066,0.755,0.191,0.823,0.579l0.468,2.69c0.068,0.387-0.19,0.756-0.578,0.822
					C88.02,104.844,87.979,104.848,87.938,104.848z M92.627,104.627c-0.333,0-0.629-0.234-0.698-0.573l-0.352-1.766
					c-0.077-0.386,0.174-0.761,0.558-0.836c0.387-0.077,0.761,0.173,0.838,0.56l0.353,1.766c0.077,0.385-0.174,0.76-0.558,0.836
					C92.719,104.622,92.673,104.627,92.627,104.627z M82.533,104.303c-0.334,0-0.631-0.236-0.698-0.574l-0.572-2.911
					c-0.075-0.387,0.176-0.761,0.563-0.836c0.385-0.077,0.759,0.175,0.835,0.562l0.57,2.912c0.076,0.385-0.175,0.76-0.561,0.836
					C82.624,104.299,82.578,104.303,82.533,104.303z M77.128,104.26c-0.01,0-0.021,0-0.029-0.003
					c-0.393-0.015-0.697-0.347-0.681-0.739l0.146-3.458c0.017-0.392,0.35-0.7,0.74-0.681c0.393,0.017,0.697,0.348,0.681,0.74
					l-0.146,3.459C77.822,103.96,77.507,104.26,77.128,104.26z M69.305,102.625c-0.197,0-0.394-0.08-0.534-0.24
					c-0.261-0.297-0.231-0.744,0.064-1.004l2.871-2.529c0.293-0.259,0.743-0.232,1.004,0.063c0.258,0.295,0.231,0.745-0.064,1.004
					l-2.871,2.529C69.639,102.566,69.471,102.625,69.305,102.625z M62.438,100.851c-0.256,0-0.505-0.141-0.632-0.384
					c-0.181-0.348-0.045-0.777,0.304-0.96l3.928-2.04c0.348-0.182,0.777-0.045,0.959,0.305c0.181,0.346,0.047,0.777-0.303,0.957
					l-3.929,2.041C62.661,100.824,62.548,100.851,62.438,100.851z M56.061,97.697c-0.308,0-0.59-0.2-0.681-0.509
					c-0.113-0.376,0.101-0.772,0.478-0.885l4.108-1.229c0.377-0.111,0.772,0.101,0.885,0.477c0.112,0.377-0.101,0.773-0.478,0.887
					l-4.109,1.229C56.197,97.688,56.127,97.697,56.061,97.697z M50.762,93.808c-0.354,0-0.661-0.265-0.706-0.626
					c-0.046-0.391,0.231-0.745,0.622-0.793l4.006-0.48c0.39-0.047,0.743,0.231,0.789,0.621c0.049,0.391-0.23,0.744-0.619,0.792
					l-4.006,0.481C50.818,93.805,50.79,93.808,50.762,93.808z M45.987,88.822c-0.384,0-0.7-0.308-0.71-0.694
					c-0.01-0.392,0.301-0.72,0.693-0.729l3.813-0.097c0.389,0.004,0.718,0.302,0.729,0.694c0.01,0.394-0.301,0.72-0.694,0.729
					l-3.812,0.094C46,88.82,45.994,88.822,45.987,88.822z M46.375,83.539c-0.034,0-0.067-0.003-0.101-0.007l-3.54-0.507
					c-0.388-0.055-0.658-0.415-0.603-0.805c0.055-0.389,0.416-0.656,0.804-0.604l3.538,0.506c0.39,0.057,0.661,0.416,0.604,0.805
					C47.026,83.283,46.724,83.539,46.375,83.539z M44.641,78.375c-0.095,0-0.19-0.02-0.283-0.059l-2.671-1.155
					c-0.361-0.156-0.526-0.576-0.37-0.936c0.154-0.361,0.574-0.526,0.935-0.37l2.671,1.154c0.361,0.156,0.527,0.575,0.37,0.936
					C45.177,78.213,44.915,78.375,44.641,78.375z"/>
			</g>
		</g>
		<g>
			<g>
				<path fill-rule="evenodd" fill="#FFFFFF" d="M75.944,158.331c-10.621-1.526-17.622-8.237-13.993-17.223
					c1.145-2.829,2.89-4.784,5.043-6.159c1.862,0.994,3.804,1.82,5.691,2.553c3.319,1.289,6.72,1.957,10.154,2.488
					c-3.139,0.49-6.302,0.932-9.452,1.653c-7.081,1.62-6.884,7.487,0.992,10.903c2.853,1.234,7.379,1.188,10.427,1.797
					c6.274,1.254,11.979,3.497,15.952,9.242c1.712,2.479,0.074,4.234-2.621,2.231c-3.779-2.813-6.42-6.681-10.625-6.952
					C83.661,158.617,79.764,158.881,75.944,158.331L75.944,158.331z"/>
			</g>
			<g>
				<path d="M100.236,167.399c-0.761,0-1.634-0.35-2.523-1.011c-1.139-0.85-2.165-1.779-3.158-2.682
					c-2.344-2.123-4.367-3.957-7.088-4.132c-1.471-0.096-2.981-0.115-4.443-0.136c-2.355-0.029-4.792-0.061-7.182-0.404
					c-6.628-0.951-11.786-3.855-14.15-7.963c-1.74-3.027-1.879-6.566-0.399-10.23c1.136-2.811,2.877-4.934,5.319-6.492
					c0.216-0.14,0.491-0.15,0.718-0.029c1.58,0.845,3.363,1.645,5.612,2.52c3.377,1.311,6.806,1.951,10.008,2.447
					c0.347,0.054,0.602,0.352,0.602,0.703c0.001,0.35-0.255,0.648-0.601,0.702c-0.499,0.077-0.997,0.155-1.496,0.23
					c-2.597,0.399-5.282,0.813-7.906,1.415c-2.746,0.625-4.407,1.934-4.56,3.586c-0.192,2.082,1.982,4.368,5.676,5.97
					c1.733,0.751,4.172,1.006,6.53,1.252c1.353,0.144,2.63,0.276,3.752,0.499c5.296,1.061,11.945,3.1,16.397,9.537
					c0.832,1.203,1.05,2.389,0.6,3.251C101.62,167.046,100.998,167.399,100.236,167.399z M67.035,135.774
					c-2.008,1.372-3.457,3.208-4.425,5.601c-1.311,3.245-1.2,6.352,0.315,8.987c2.143,3.728,6.925,6.375,13.118,7.267
					c2.298,0.328,4.687,0.359,6.997,0.39c1.479,0.021,3.01,0.04,4.518,0.138c3.217,0.204,5.516,2.291,7.951,4.498
					c0.968,0.879,1.97,1.787,3.053,2.592c0.854,0.634,1.416,0.73,1.674,0.73c0.34,0,0.42-0.154,0.446-0.204
					c0.154-0.296,0.059-0.962-0.509-1.782c-4.137-5.982-10.161-7.881-15.507-8.949c-1.055-0.211-2.302-0.34-3.62-0.48
					c-2.466-0.257-5.016-0.524-6.948-1.359c-4.343-1.884-6.781-4.652-6.526-7.407c0.213-2.304,2.275-4.069,5.658-4.845
					c1.763-0.402,3.543-0.721,5.302-1.008c-2.006-0.426-4.059-0.982-6.105-1.777C70.299,137.338,68.571,136.572,67.035,135.774z"/>
			</g>
		</g>
		<g>
			<g>
				<path d="M70.534,153.42c-0.305,0-0.586-0.196-0.68-0.502c-0.115-0.375,0.097-0.773,0.473-0.889l2.553-0.782
					c0.375-0.115,0.773,0.097,0.889,0.47c0.115,0.377-0.097,0.773-0.472,0.889l-2.554,0.783
					C70.673,153.41,70.604,153.42,70.534,153.42z M69.435,150.069c-0.01,0-0.021,0-0.031,0l-2.669-0.118
					c-0.394-0.018-0.697-0.35-0.68-0.742c0.018-0.392,0.355-0.696,0.74-0.678l2.671,0.115c0.393,0.019,0.697,0.35,0.68,0.743
					C70.129,149.772,69.813,150.069,69.435,150.069z M68.07,146.421c-0.083,0-0.165-0.015-0.247-0.044l-2.529-0.943
					c-0.369-0.137-0.556-0.547-0.42-0.914c0.137-0.371,0.548-0.557,0.915-0.42l2.529,0.943c0.369,0.137,0.556,0.546,0.419,0.914
					C68.631,146.244,68.358,146.421,68.07,146.421z M61.679,143.505c-0.22,0-0.437-0.104-0.576-0.294
					c-0.23-0.316-0.161-0.762,0.157-0.992l3.108-2.261c0.317-0.233,0.763-0.163,0.993,0.155c0.232,0.318,0.162,0.762-0.156,0.992
					l-3.109,2.263C61.971,143.459,61.823,143.505,61.679,143.505z M70.172,143.461c-0.137,0-0.274-0.039-0.397-0.123l-2.468-1.672
					c-0.325-0.221-0.411-0.664-0.191-0.987c0.221-0.325,0.662-0.411,0.987-0.189l2.471,1.671c0.325,0.223,0.411,0.664,0.189,0.988
					C70.624,143.352,70.401,143.461,70.172,143.461z M74.29,142.108c-0.183,0-0.367-0.07-0.505-0.212l-2.918-2.942
					c-0.276-0.278-0.275-0.729,0.004-1.007c0.28-0.275,0.729-0.274,1.006,0.005l2.918,2.944c0.276,0.279,0.273,0.729-0.005,1.007
					C74.651,142.039,74.471,142.108,74.29,142.108z M64.507,137.955c-0.354,0-0.662-0.266-0.706-0.628
					c-0.046-0.39,0.233-0.743,0.624-0.788l4.371-0.52c0.392-0.047,0.744,0.232,0.79,0.621c0.046,0.391-0.231,0.744-0.622,0.791
					l-4.371,0.52C64.564,137.955,64.535,137.955,64.507,137.955z"/>
			</g>
		</g>
		<g>
			<g>
				<path d="M69.19,156.613c-0.219,0-0.436-0.1-0.573-0.292c-0.231-0.315-0.164-0.762,0.153-0.993l1.562-1.146
					c0.317-0.23,0.762-0.163,0.995,0.152c0.231,0.318,0.164,0.762-0.153,0.995l-1.563,1.146
					C69.485,156.568,69.336,156.613,69.19,156.613z"/>
			</g>
		</g>
		<g>
			<g>
				<path d="M63.668,147.205c-0.004,0-0.009,0-0.014,0l-2.52-0.049c-0.393-0.01-0.705-0.333-0.697-0.727
					c0.008-0.388,0.325-0.697,0.711-0.697c0.004,0,0.01,0,0.015,0l2.52,0.051c0.393,0.007,0.705,0.332,0.697,0.724
					C64.372,146.896,64.055,147.205,63.668,147.205z"/>
			</g>
		</g>
		<g>
			<g>
				<path d="M85.171,159.416c-0.214,0-0.425-0.098-0.565-0.282c-0.237-0.312-0.178-0.758,0.135-0.996l1.998-1.522
					c0.313-0.237,0.759-0.179,0.997,0.135c0.238,0.313,0.178,0.76-0.136,0.998l-1.997,1.521
					C85.475,159.367,85.322,159.416,85.171,159.416z M79.185,159.129c-0.255,0-0.501-0.137-0.629-0.377
					c-0.185-0.348-0.053-0.777,0.295-0.963l3.041-1.613c0.347-0.186,0.778-0.052,0.961,0.294c0.187,0.347,0.053,0.778-0.294,0.962
					l-3.042,1.613C79.411,159.104,79.297,159.129,79.185,159.129z M72.531,158.273c-0.282,0-0.548-0.168-0.66-0.445
					c-0.147-0.363,0.028-0.778,0.392-0.926l3.518-1.424c0.363-0.148,0.778,0.027,0.927,0.391c0.146,0.363-0.029,0.781-0.393,0.928
					l-3.517,1.424C72.711,158.257,72.618,158.273,72.531,158.273z M65.781,155.136c-0.288,0-0.559-0.175-0.665-0.46
					c-0.139-0.369,0.048-0.779,0.416-0.917l2.281-0.854c0.368-0.137,0.778,0.051,0.915,0.418s-0.049,0.777-0.416,0.915l-2.281,0.854
					C65.948,155.122,65.865,155.136,65.781,155.136z M66.258,152.096c-0.04,0-0.079-0.004-0.12-0.012l-3.898-0.666
					c-0.387-0.064-0.647-0.432-0.581-0.82c0.066-0.387,0.433-0.647,0.822-0.581l3.896,0.667c0.388,0.064,0.646,0.432,0.581,0.819
					C66.899,151.852,66.597,152.096,66.258,152.096z"/>
			</g>
		</g>
		<g>
			<g>
				<path d="M91.196,160.734c-0.266,0-0.521-0.151-0.644-0.408c-0.168-0.354-0.017-0.78,0.338-0.947l1.581-0.747
					c0.355-0.167,0.779-0.017,0.947,0.338s0.017,0.778-0.339,0.946l-1.58,0.748C91.402,160.711,91.298,160.734,91.196,160.734z"/>
			</g>
		</g>
		<g>
			<g>
				<path d="M95.247,161.029c-0.325,0-0.618-0.224-0.692-0.555c-0.089-0.382,0.152-0.764,0.536-0.851l2.089-0.474
					c0.383-0.087,0.765,0.152,0.852,0.536s-0.153,0.765-0.536,0.853l-2.091,0.473C95.352,161.023,95.298,161.029,95.247,161.029z
					 M89.64,158.558c-0.282,0-0.55-0.169-0.66-0.446c-0.146-0.367,0.031-0.779,0.396-0.925l2.853-1.138
					c0.364-0.146,0.779,0.029,0.924,0.396c0.146,0.363-0.032,0.778-0.396,0.925l-2.852,1.137
					C89.816,158.541,89.728,158.558,89.64,158.558z M84.696,156.754c-0.314,0-0.604-0.211-0.688-0.529
					c-0.101-0.381,0.126-0.77,0.506-0.869l3.23-0.857c0.381-0.101,0.77,0.127,0.869,0.505c0.101,0.38-0.125,0.769-0.504,0.87
					l-3.232,0.855C84.816,156.745,84.755,156.754,84.696,156.754z M79.564,156.184c-0.285,0-0.553-0.174-0.663-0.455
					c-0.143-0.367,0.04-0.779,0.405-0.92l2.947-1.143c0.367-0.142,0.777,0.041,0.92,0.407c0.142,0.366-0.04,0.778-0.406,0.919
					l-2.946,1.143C79.737,156.166,79.65,156.184,79.564,156.184z M74.811,155.041c-0.335,0-0.634-0.238-0.698-0.58
					c-0.071-0.385,0.182-0.759,0.568-0.83l3.04-0.567c0.387-0.074,0.758,0.182,0.831,0.567c0.072,0.385-0.183,0.758-0.568,0.83
					l-3.041,0.567C74.898,155.037,74.854,155.041,74.811,155.041z"/>
			</g>
		</g>
		<g>
			<g>
				<path fill-rule="evenodd" d="M118.079,59.029c-1.068,0-1.935-0.865-1.935-1.936c0-1.066,0.866-1.933,1.935-1.933
					c1.07,0,1.936,0.866,1.936,1.933C120.015,58.164,119.149,59.029,118.079,59.029L118.079,59.029z"/>
			</g>
		</g>
		<g>
			<g>
				<path fill-rule="evenodd" d="M50.204,59.029c1.068,0,1.935-0.865,1.935-1.936c0-1.066-0.866-1.933-1.935-1.933
					c-1.07,0-1.936,0.866-1.936,1.933C48.269,58.164,49.134,59.029,50.204,59.029L50.204,59.029z"/>
			</g>
		</g>
		<g>
			<g>
				<path fill-rule="evenodd" fill="#FFFFFF" d="M72.879,65.998l5.42,64.501c2.098,0.473,4.494,0.825,7.205,1.029
					c1.057,0.077,2.1,0.169,3.126,0.279l5.329-65.81l0.527-3.384l-21.935,0.182L72.879,65.998L72.879,65.998z"/>
			</g>
		</g>
		<g>
			<g>
				<polygon fill-rule="evenodd" points="73.552,65.998 79.087,130.647 84.93,131.703 84.93,62.811 73.227,62.796 73.552,65.998 
									"/>
			</g>
		</g>
		<g>
			<g>
				<polygon fill="#FFFFFF" points="76.691,110.952 85.01,110.952 85.01,112.646 76.691,112.646 76.691,110.952 				"/>
			</g>
		</g>
		<g>
			<g>
				<polygon fill="#FFFFFF" points="77.328,114.12 85.01,114.12 85.01,115.655 77.328,115.655 77.328,114.12 				"/>
			</g>
		</g>
		<g>
			<g>
				<polygon fill="#FFFFFF" points="77.328,117.29 85.01,117.29 85.01,118.667 77.328,118.667 77.328,117.29 				"/>
			</g>
		</g>
		<g>
			<g>
				<polygon fill="#FFFFFF" points="77.725,120.561 85.01,120.561 85.01,122.047 77.725,122.047 77.725,120.561 				"/>
			</g>
		</g>
		<g>
			<g>
				<polygon fill="#FFFFFF" points="77.883,124.053 85.01,124.053 85.01,125.406 77.883,125.406 77.883,124.053 				"/>
			</g>
		</g>
		<g>
			<g>
				<polygon fill="#FFFFFF" points="78.759,127.178 85.01,127.178 85.01,128.867 78.759,128.867 78.759,127.178 				"/>
			</g>
		</g>
		<g>
			<g>
				<polygon fill="#FFFFFF" points="75.649,92.344 85.01,92.344 85.01,94.246 75.649,94.246 75.649,92.344 				"/>
			</g>
		</g>
		<g>
			<g>
				<polygon fill="#FFFFFF" points="75.649,96.475 85.01,96.475 85.01,98.377 75.649,98.377 75.649,96.475 				"/>
			</g>
		</g>
		<g>
			<g>
				<polygon fill="#FFFFFF" points="76.691,107.277 85.01,107.277 85.01,108.967 76.691,108.967 76.691,107.277 				"/>
			</g>
		</g>
		<g>
			<g>
				<polygon fill="#FFFFFF" points="76.691,104.009 85.01,104.009 85.01,105.701 76.691,105.701 76.691,104.009 				"/>
			</g>
		</g>
		<g>
			<g>
				<polygon fill="#FFFFFF" points="76.691,100.469 85.01,100.469 85.01,102.16 76.691,102.16 76.691,100.469 				"/>
			</g>
		</g>
		<g>
			<g>
				<path d="M116.176,36.677c-0.064,0-0.13-0.011-0.193-0.028c-3.281-0.932-6.168-2.27-8.8-4.078
					c-0.037,0.207-0.166,0.395-0.366,0.5c-3.327,1.764-6.136,2.102-10.366,1.244c-0.384-0.078-0.634-0.453-0.556-0.838
					s0.452-0.634,0.839-0.556c3.916,0.792,6.38,0.502,9.416-1.107c0.031-0.017,0.062-0.029,0.094-0.041
					c-0.094-0.223-0.072-0.487,0.082-0.696c0.231-0.317,0.677-0.385,0.994-0.153c2.583,1.894,5.431,3.286,8.688,4.253
					c0.799-0.689,1.338-1.267,1.715-1.852c-2.982-0.746-5.695-1.755-8.468-3.349c-0.34-0.196-0.458-0.632-0.263-0.972
					c0.196-0.341,0.632-0.459,0.972-0.262c2.804,1.611,5.563,2.602,8.646,3.334c0.148-0.045,0.313-0.041,0.468,0.021
					c0.082,0.033,0.155,0.08,0.216,0.135c1.28,0.284,2.617,0.531,4.037,0.763c0.74-0.661,1.426-1.388,2.05-2.175
					c-4.122-0.598-8.307-1.723-12.379-3.951c-0.346-0.189-0.471-0.623-0.283-0.966c0.188-0.346,0.621-0.472,0.966-0.282
					c6.13,3.354,12.592,4.108,18.682,4.392c0.764-0.747,1.435-1.535,2.06-2.415c-5.967-0.071-11.804-1.192-18.059-3.44
					c-0.368-0.133-0.561-0.54-0.428-0.91c0.134-0.37,0.54-0.562,0.91-0.429c7.497,2.695,14.372,3.729,21.615,3.244
					c0.876-0.834,1.62-1.742,2.222-2.711c-7.376,0.159-14.568-0.867-21.445-3.068c-0.374-0.119-0.58-0.52-0.461-0.893
					c0.119-0.374,0.52-0.582,0.894-0.461c8.112,2.596,16.68,3.521,25.47,2.752c0.971-1.221,1.737-2.693,2.368-4.549
					c-8.653,1.976-18.615,3.149-24.408,0.164c-0.35-0.18-0.486-0.607-0.308-0.959c0.181-0.348,0.609-0.486,0.959-0.305
					c4.576,2.358,13.199,2.156,24.498-0.535c0.095-0.047,0.2-0.074,0.308-0.074c0.96-0.23,1.936-0.48,2.933-0.747
					c0.88-1.574,1.452-3.723,1.771-5.683c-5.459,5.596-16.552,5.987-31.205,5.877c-0.055,0-0.111,0-0.167,0
					c-6.229,0-10.833,2.659-14.661,5.156c-4.061,2.647-5.299,5.789-4.724,7.729c0.338,1.141,1.288,1.793,2.606,1.796
					c0.393,0,0.71,0.317,0.71,0.712c0,0.392-0.32,0.709-0.712,0.709l0,0c-1.963-0.002-3.445-1.053-3.968-2.813
					c-0.674-2.266,0.314-6.068,5.31-9.326c4.002-2.608,8.82-5.387,15.437-5.387c0.061,0,0.119,0,0.18,0.004
					c15.295,0.115,27.327-0.348,31.583-7.252c0.171-0.278,0.511-0.404,0.821-0.305c0.31,0.098,0.515,0.397,0.494,0.723
					c-0.165,2.611-0.894,6.544-2.398,9.037c-0.095,0.158-0.247,0.271-0.424,0.32c-0.975,0.264-1.983,0.523-3.018,0.775
					c-0.771,2.552-1.756,4.488-3.076,6.07c-0.121,0.145-0.294,0.234-0.481,0.253c-1.074,0.099-2.146,0.173-3.212,0.222
					c-0.772,1.451-1.818,2.79-3.111,3.983c-0.119,0.108-0.271,0.174-0.432,0.187c-0.895,0.063-1.784,0.105-2.67,0.125
					c-0.892,1.391-1.855,2.561-3.018,3.664c-0.14,0.133-0.328,0.203-0.521,0.195c-1.837-0.082-3.712-0.203-5.604-0.419
					c-0.874,1.21-1.882,2.306-2.994,3.261c-0.158,0.135-0.37,0.194-0.576,0.16c-1.5-0.24-2.912-0.494-4.262-0.787
					c-0.505,0.934-1.285,1.801-2.542,2.846C116.502,36.617,116.341,36.677,116.176,36.677z"/>
			</g>
		</g>
		<g>
			<g>
				<path d="M50.526,36.677c-0.165,0-0.326-0.06-0.457-0.167c-1.256-1.047-2.035-1.912-2.539-2.846
					c-1.35,0.293-2.762,0.547-4.262,0.787c-0.208,0.034-0.417-0.025-0.576-0.16c-1.112-0.955-2.12-2.051-2.994-3.261
					c-1.892,0.216-3.766,0.337-5.603,0.419c-0.192,0.008-0.382-0.063-0.522-0.195c-1.163-1.104-2.125-2.273-3.017-3.664
					c-0.886-0.02-1.773-0.063-2.67-0.125c-0.161-0.013-0.313-0.076-0.432-0.187c-1.293-1.189-2.339-2.53-3.111-3.983
					c-1.066-0.049-2.137-0.123-3.211-0.222c-0.187-0.019-0.359-0.108-0.481-0.253c-1.319-1.579-2.304-3.516-3.076-6.07
					c-1.034-0.252-2.043-0.512-3.017-0.775c-0.177-0.049-0.329-0.162-0.424-0.32c-1.508-2.493-2.235-6.428-2.399-9.037
					c-0.021-0.326,0.184-0.625,0.494-0.723c0.313-0.1,0.65,0.026,0.821,0.306c4.253,6.903,16.289,7.366,31.582,7.251
					c6.72-0.057,11.58,2.752,15.616,5.383c4.995,3.258,5.981,7.061,5.309,9.326c-0.522,1.76-2.005,2.811-3.967,2.813l0,0
					c-0.394,0-0.712-0.317-0.712-0.709c0-0.395,0.318-0.712,0.71-0.712c1.317-0.003,2.268-0.655,2.605-1.796
					c0.576-1.939-0.662-5.081-4.723-7.729c-3.827-2.497-8.431-5.156-14.662-5.156c-0.057,0-0.11,0-0.166,0
					c-14.655,0.111-25.746-0.279-31.204-5.877c0.318,1.959,0.891,4.108,1.771,5.683c0.996,0.267,1.973,0.517,2.932,0.747
					c0.107,0,0.213,0.027,0.308,0.074c11.298,2.691,19.921,2.894,24.498,0.535c0.349-0.179,0.778-0.043,0.958,0.305
					c0.18,0.352,0.043,0.779-0.307,0.959c-5.795,2.985-15.757,1.812-24.408-0.164c0.632,1.859,1.4,3.33,2.369,4.549
					c8.786,0.77,17.355-0.156,25.466-2.752c0.374-0.121,0.776,0.087,0.894,0.461c0.121,0.373-0.085,0.773-0.459,0.893
					c-6.876,2.201-14.064,3.229-21.444,3.068c0.602,0.97,1.346,1.879,2.222,2.711c7.242,0.486,14.119-0.549,21.615-3.244
					c0.368-0.133,0.776,0.059,0.91,0.429c0.133,0.37-0.06,0.777-0.429,0.91c-6.252,2.248-12.091,3.369-18.058,3.44
					c0.623,0.88,1.296,1.668,2.06,2.415c6.09-0.283,12.551-1.037,18.684-4.392c0.344-0.189,0.776-0.063,0.965,0.282
					c0.188,0.343,0.063,0.776-0.283,0.966c-4.073,2.229-8.258,3.354-12.38,3.951c0.624,0.787,1.31,1.514,2.049,2.175
					c1.422-0.231,2.76-0.479,4.04-0.763c0.06-0.055,0.133-0.103,0.215-0.135c0.155-0.063,0.318-0.064,0.466-0.021
					c3.082-0.732,5.843-1.723,8.646-3.334c0.341-0.197,0.776-0.079,0.972,0.262c0.196,0.34,0.078,0.775-0.262,0.972
					c-2.773,1.593-5.485,2.603-8.467,3.349c0.376,0.584,0.915,1.161,1.714,1.852c3.258-0.966,6.104-2.359,8.69-4.253
					c0.316-0.231,0.761-0.164,0.993,0.153c0.154,0.209,0.176,0.474,0.082,0.696c0.031,0.012,0.063,0.024,0.094,0.041
					c3.035,1.609,5.501,1.899,9.416,1.107c0.387-0.078,0.761,0.171,0.839,0.556s-0.172,0.76-0.557,0.838
					c-4.229,0.857-7.038,0.52-10.365-1.244c-0.199-0.105-0.328-0.293-0.366-0.5c-2.632,1.809-5.52,3.146-8.801,4.078
					C50.656,36.666,50.591,36.677,50.526,36.677z"/>
			</g>
		</g>
		<g>
			<g>
				<path fill-rule="evenodd" d="M21.943,12.256c13.727,1.56,18.401-1.471,24.899-1.398c9.251,0.101,15.079,4.57,19.185,10.645
					c9.559-15.213,24.973-15.399,34.648,0c4.104-6.074,9.931-10.544,19.187-10.645c6.497-0.072,11.171,2.958,24.897,1.398
					c-1.037,0.355-8.447,1.474-9.482,1.826c-3.644,0-7.281,0-10.921,0c-2.808,0.352-5.614,0.702-8.422,1.053
					c-2.369,1.053-4.736,2.105-7.105,3.158c-1.931,1.578-3.859,3.158-5.79,4.735c-0.526,1.142-1.051,2.281-1.58,3.423
					c0.396,1.096,0.79,2.193,1.186,3.29c1.141,0.218,2.278,0.427,3.419,0.647c-0.134,0.887-1.087,1.268-1.8,1.301
					c-6.377,0.301-7.62,0.117-9.646-4.449c-5.276-12.054-17.681-11.699-22.533,0c-2.026,4.566-3.269,4.75-9.647,4.449
					c-0.71-0.033-1.665-0.414-1.797-1.301c1.141-0.221,2.277-0.43,3.418-0.647c0.395-1.097,0.788-2.194,1.184-3.29
					c-0.525-1.142-1.053-2.281-1.578-3.423c-1.93-1.577-3.86-3.157-5.79-4.735c-2.368-1.053-4.736-2.105-7.105-3.158
					c-2.808-0.351-5.613-0.701-8.421-1.053c-3.642,0-7.279,0-10.922,0C30.391,13.729,22.98,12.611,21.943,12.256L21.943,12.256z"/>
			</g>
		</g>
		<g>
			<g>
				<path fill-rule="evenodd" d="M69.272,47.747c-8.108,0-16.214,0-24.32,0c0-2.642,0-5.282,0-7.924
					c6.651-0.087,12.181-2.415,16.944-6.274c0.293,0.04,0.588,0.081,0.881,0.122c2.267-0.138,6.41-0.737,7.406-1.764
					c1.383,1.89,2.676,3.952,5.405,3.942c0.633-0.002,1.27-0.268,1.926-0.48c2.689-0.863,3.381,0.204,1.889,1.876
					c-1.886,2.113-4.259,3.362-6.642,4.383C71.479,43.668,70.553,45.707,69.272,47.747L69.272,47.747z"/>
			</g>
		</g>
		<g>
			<g>
				<path fill-rule="evenodd" d="M97.431,47.747c8.108,0,16.215,0,24.32,0c0-2.642,0-5.282,0-7.924
					c-6.651-0.087-12.181-2.415-16.945-6.274c-0.293,0.04-0.588,0.081-0.88,0.122c-2.267-0.138-6.412-0.737-7.405-1.764
					c-1.384,1.89-2.677,3.952-5.405,3.942c-0.634-0.002-1.271-0.268-1.927-0.48c-2.692-0.863-3.382,0.204-1.89,1.876
					c1.887,2.113,4.262,3.362,6.643,4.383C95.223,43.668,96.15,45.707,97.431,47.747L97.431,47.747z"/>
			</g>
		</g>
		<g>
			<g>
				<path fill-rule="evenodd" d="M69.906,41.854c8.279,0,16.558,0,24.835,0c0.658,1.191,1.313,2.387,1.974,3.579
					c4.097,6.157,0.927,9.915-4.083,12.59c-6.729,0-12.455,0-19.187,0c-4.387-2.159-7.343-5.534-5.424-11.049
					C68.631,45.228,69.277,43.559,69.906,41.854L69.906,41.854z M75.29,50.548c1.205,1.388,2.582,2.664,5.79,1.549
					c0.87-0.302,1.655-1.178,2.298-1.761c0.347-0.313,0.663-0.527,0.94-0.649c-3.123,0-6.243,0-9.365,0
					C75.048,49.984,75.161,50.271,75.29,50.548L75.29,50.548z M85.355,49.687c0.383,0.298,0.408,1.022-0.057,1.808
					c-0.812,1.371-2.309,3.076-4.294,3.631c3.993,1.059,8.632-0.438,10.026-5.438C89.141,49.687,87.248,49.687,85.355,49.687
					L85.355,49.687z"/>
			</g>
		</g>
		<g>
			<g>
				<path d="M89.605,132.985l-1.089-0.116c-0.966-0.105-1.977-0.195-3.091-0.275c-2.668-0.201-5.145-0.556-7.36-1.053l-0.765-0.172
					l-5.484-65.281l-0.443-4.35l24.36-0.199l-0.714,4.585L89.605,132.985z M79.296,129.622c1.917,0.391,4.028,0.673,6.289,0.844
					c0.726,0.052,1.41,0.108,2.069,0.171l5.244-64.764l0.34-2.182l-19.506,0.16l0.207,2.039L79.296,129.622z"/>
			</g>
		</g>
		<g>
			<g>
				<polygon fill-rule="evenodd" fill="#FFFFFF" points="74.438,79.138 91.49,79.138 95.473,83.067 91.49,87 74.438,87 
					71.885,83.067 74.438,79.138 				"/>
			</g>
			<g>
				<path d="M91.781,87.712h-17.73l-3.013-4.645l3.013-4.642h17.73l4.703,4.642L91.781,87.712z M74.824,86.288h16.374l3.262-3.221
					l-3.262-3.218H74.824l-2.092,3.218L74.824,86.288z"/>
			</g>
		</g>
		<g>
			<g>
				<polygon fill-rule="evenodd" points="95.473,83.067 91.49,87 74.438,87 71.885,83.067 95.473,83.067 				"/>
			</g>
		</g>
		<g>
			<g>
				<polygon fill-rule="evenodd" fill="#FFFFFF" points="72.534,57.723 93.098,57.723 97.902,62.465 93.098,67.205 72.534,67.205 
					69.455,62.465 72.534,57.723 				"/>
			</g>
			<g>
				<path d="M93.39,67.916H72.148l-3.542-5.451l3.542-5.453H93.39l5.524,5.453L93.39,67.916z M72.921,66.494h19.885l4.084-4.029
					l-4.084-4.031H72.921l-2.618,4.031L72.921,66.494z"/>
			</g>
		</g>
		<g>
			<g>
				<polygon fill-rule="evenodd" points="97.902,62.465 93.098,67.205 72.534,67.205 69.455,62.465 97.902,62.465 				"/>
			</g>
		</g>
	</g>
</g>
<g>
	<path d="M211.739,136.883l1.969-0.191c0.118,0.661,0.359,1.146,0.721,1.456c0.363,0.31,0.852,0.465,1.467,0.465
		c0.651,0,1.143-0.138,1.473-0.414c0.331-0.276,0.496-0.598,0.496-0.967c0-0.237-0.069-0.438-0.209-0.605
		c-0.139-0.167-0.381-0.311-0.728-0.434c-0.237-0.082-0.777-0.228-1.62-0.438c-1.085-0.269-1.846-0.599-2.283-0.991
		c-0.615-0.551-0.923-1.224-0.923-2.017c0-0.51,0.145-0.988,0.435-1.432c0.289-0.444,0.706-0.783,1.25-1.015
		c0.545-0.232,1.202-0.349,1.973-0.349c1.258,0,2.205,0.276,2.84,0.827c0.637,0.551,0.97,1.288,1.002,2.208l-2.023,0.089
		c-0.087-0.515-0.272-0.885-0.557-1.111c-0.285-0.226-0.713-0.338-1.282-0.338c-0.588,0-1.048,0.121-1.381,0.362
		c-0.214,0.155-0.321,0.362-0.321,0.622c0,0.237,0.101,0.44,0.301,0.608c0.255,0.214,0.875,0.438,1.859,0.67
		s1.713,0.473,2.184,0.721c0.473,0.249,0.842,0.588,1.107,1.019c0.268,0.431,0.4,0.963,0.4,1.596c0,0.574-0.159,1.112-0.479,1.613
		s-0.771,0.874-1.354,1.118s-1.311,0.366-2.181,0.366c-1.267,0-2.24-0.293-2.919-0.878S211.871,138.004,211.739,136.883z"/>
	<path d="M225.78,137.833l1.914,0.321c-0.246,0.702-0.635,1.236-1.166,1.603c-0.53,0.367-1.194,0.55-1.992,0.55
		c-1.263,0-2.196-0.413-2.803-1.237c-0.479-0.661-0.718-1.495-0.718-2.502c0-1.203,0.314-2.146,0.943-2.827s1.424-1.022,2.386-1.022
		c1.08,0,1.933,0.356,2.557,1.07s0.923,1.806,0.896,3.278h-4.813c0.014,0.57,0.169,1.013,0.465,1.33s0.665,0.475,1.107,0.475
		c0.301,0,0.554-0.082,0.759-0.246S225.676,138.198,225.78,137.833z M225.89,135.892c-0.014-0.556-0.157-0.979-0.431-1.268
		s-0.606-0.434-0.998-0.434c-0.419,0-0.766,0.153-1.039,0.458s-0.408,0.72-0.403,1.244H225.89z"/>
	<path d="M231.201,140.144h-1.921v-7.26h1.784v1.032c0.306-0.488,0.58-0.809,0.824-0.964c0.243-0.155,0.521-0.232,0.83-0.232
		c0.438,0,0.859,0.121,1.265,0.362l-0.595,1.675c-0.323-0.209-0.624-0.314-0.902-0.314c-0.269,0-0.497,0.074-0.684,0.222
		s-0.334,0.416-0.441,0.803c-0.106,0.387-0.16,1.199-0.16,2.434V140.144z"/>
	<path d="M236.807,140.144l-2.926-7.26h2.017l1.367,3.705l0.396,1.237c0.104-0.314,0.171-0.522,0.198-0.622
		c0.063-0.205,0.132-0.41,0.205-0.615l1.381-3.705h1.976l-2.885,7.26H236.807z"/>
	<path d="M242.597,131.9v-1.777h1.921v1.777H242.597z M242.597,140.144v-7.26h1.921v7.26H242.597z"/>
	<path d="M252.816,135.031l-1.894,0.342c-0.063-0.378-0.209-0.663-0.434-0.854c-0.227-0.191-0.519-0.287-0.879-0.287
		c-0.479,0-0.86,0.165-1.145,0.496c-0.285,0.331-0.428,0.883-0.428,1.658c0,0.861,0.145,1.47,0.434,1.825
		c0.29,0.355,0.679,0.533,1.166,0.533c0.364,0,0.663-0.104,0.896-0.311s0.396-0.564,0.492-1.07l1.887,0.321
		c-0.196,0.866-0.572,1.52-1.128,1.962s-1.301,0.663-2.235,0.663c-1.062,0-1.908-0.335-2.54-1.005
		c-0.631-0.67-0.946-1.597-0.946-2.782c0-1.199,0.316-2.132,0.95-2.799s1.49-1.001,2.57-1.001c0.884,0,1.587,0.19,2.109,0.571
		C252.214,133.671,252.589,134.251,252.816,135.031z M247.642,142.899v-0.807c0.47,0.05,0.9,0.075,1.292,0.075
		c0.405,0,0.706-0.073,0.902-0.219c0.15-0.109,0.226-0.25,0.226-0.424c0-0.155-0.07-0.29-0.212-0.403s-0.36-0.171-0.656-0.171
		c-0.292,0-0.59,0.045-0.896,0.137l0.178-0.677c0.355-0.123,0.738-0.185,1.148-0.185c0.569,0,1.003,0.125,1.299,0.376
		s0.444,0.556,0.444,0.916c0,0.401-0.164,0.727-0.492,0.978c-0.442,0.342-1.075,0.513-1.9,0.513
		C248.387,143.008,247.942,142.972,247.642,142.899z"/>
	<path d="M253.828,136.412c0-0.638,0.157-1.255,0.472-1.853s0.76-1.053,1.337-1.367c0.576-0.314,1.22-0.472,1.931-0.472
		c1.099,0,1.998,0.356,2.7,1.07s1.053,1.614,1.053,2.704c0,1.098-0.354,2.009-1.063,2.731c-0.709,0.722-1.602,1.083-2.677,1.083
		c-0.665,0-1.3-0.15-1.903-0.451c-0.604-0.301-1.063-0.742-1.378-1.323S253.828,137.246,253.828,136.412z M255.797,136.514
		c0,0.72,0.171,1.271,0.513,1.654s0.764,0.574,1.265,0.574s0.922-0.191,1.262-0.574c0.339-0.383,0.509-0.939,0.509-1.668
		c0-0.711-0.17-1.258-0.509-1.641c-0.34-0.383-0.761-0.574-1.262-0.574s-0.923,0.191-1.265,0.574S255.797,135.794,255.797,136.514z"
		/>
	<path d="M262.147,138.073l1.928-0.294c0.082,0.374,0.248,0.657,0.499,0.851s0.602,0.291,1.053,0.291
		c0.497,0,0.87-0.091,1.121-0.273c0.169-0.127,0.253-0.298,0.253-0.513c0-0.146-0.046-0.267-0.137-0.362
		c-0.096-0.091-0.31-0.175-0.643-0.253c-1.55-0.342-2.531-0.654-2.946-0.937c-0.574-0.392-0.861-0.937-0.861-1.634
		c0-0.629,0.248-1.158,0.745-1.586s1.267-0.643,2.311-0.643c0.993,0,1.731,0.162,2.215,0.485s0.815,0.802,0.998,1.436l-1.812,0.335
		c-0.077-0.283-0.225-0.499-0.44-0.649c-0.217-0.15-0.525-0.226-0.927-0.226c-0.506,0-0.868,0.071-1.087,0.212
		c-0.146,0.1-0.219,0.23-0.219,0.39c0,0.137,0.063,0.253,0.191,0.349c0.173,0.127,0.771,0.308,1.795,0.54
		c1.022,0.232,1.737,0.517,2.143,0.854c0.401,0.342,0.602,0.818,0.602,1.429c0,0.666-0.278,1.237-0.834,1.716
		s-1.379,0.718-2.468,0.718c-0.989,0-1.771-0.201-2.349-0.602C262.702,139.306,262.325,138.761,262.147,138.073z"/>
	<path d="M270.563,138.223h1.921v1.374c0,0.556-0.048,0.995-0.144,1.316s-0.277,0.609-0.543,0.865
		c-0.268,0.255-0.605,0.456-1.016,0.602l-0.376-0.793c0.388-0.127,0.663-0.303,0.827-0.526s0.251-0.529,0.26-0.916h-0.93V138.223z"
		/>
	<path d="M284.815,136.459l1.962,0.622c-0.301,1.094-0.801,1.906-1.5,2.437c-0.7,0.531-1.588,0.796-2.663,0.796
		c-1.331,0-2.425-0.455-3.281-1.364s-1.285-2.152-1.285-3.729c0-1.668,0.431-2.963,1.292-3.886s1.994-1.384,3.397-1.384
		c1.226,0,2.222,0.362,2.987,1.087c0.456,0.428,0.798,1.043,1.025,1.846l-2.003,0.479c-0.118-0.52-0.366-0.93-0.741-1.23
		c-0.377-0.301-0.833-0.451-1.371-0.451c-0.743,0-1.346,0.267-1.809,0.8c-0.462,0.533-0.693,1.397-0.693,2.591
		c0,1.267,0.228,2.169,0.684,2.707s1.048,0.807,1.777,0.807c0.538,0,1-0.171,1.388-0.513S284.646,137.193,284.815,136.459z"/>
	<path d="M288.056,136.412c0-0.638,0.157-1.255,0.472-1.853s0.76-1.053,1.337-1.367c0.576-0.314,1.22-0.472,1.931-0.472
		c1.099,0,1.998,0.356,2.7,1.07s1.053,1.614,1.053,2.704c0,1.098-0.354,2.009-1.063,2.731c-0.709,0.722-1.602,1.083-2.677,1.083
		c-0.665,0-1.3-0.15-1.903-0.451c-0.604-0.301-1.063-0.742-1.378-1.323S288.056,137.246,288.056,136.412z M290.024,136.514
		c0,0.72,0.171,1.271,0.513,1.654s0.764,0.574,1.265,0.574s0.922-0.191,1.262-0.574c0.339-0.383,0.509-0.939,0.509-1.668
		c0-0.711-0.17-1.258-0.509-1.641c-0.34-0.383-0.761-0.574-1.262-0.574s-0.923,0.191-1.265,0.574S290.024,135.794,290.024,136.514z"
		/>
	<path d="M303.655,140.144h-1.921v-3.705c0-0.784-0.041-1.291-0.123-1.521s-0.215-0.409-0.4-0.537
		c-0.184-0.127-0.406-0.191-0.666-0.191c-0.333,0-0.631,0.091-0.896,0.273s-0.445,0.424-0.544,0.725
		c-0.098,0.301-0.146,0.857-0.146,1.668v3.288h-1.921v-7.26h1.784v1.066c0.634-0.82,1.431-1.23,2.393-1.23
		c0.424,0,0.812,0.076,1.162,0.229s0.616,0.348,0.797,0.584c0.18,0.237,0.305,0.506,0.375,0.807
		c0.071,0.301,0.106,0.731,0.106,1.292V140.144z"/>
	<path d="M304.927,138.073l1.928-0.294c0.082,0.374,0.248,0.657,0.499,0.851s0.602,0.291,1.053,0.291
		c0.497,0,0.87-0.091,1.121-0.273c0.169-0.127,0.253-0.298,0.253-0.513c0-0.146-0.046-0.267-0.137-0.362
		c-0.096-0.091-0.31-0.175-0.643-0.253c-1.55-0.342-2.531-0.654-2.946-0.937c-0.574-0.392-0.861-0.937-0.861-1.634
		c0-0.629,0.248-1.158,0.745-1.586s1.267-0.643,2.311-0.643c0.993,0,1.731,0.162,2.215,0.485s0.815,0.802,0.998,1.436l-1.812,0.335
		c-0.077-0.283-0.225-0.499-0.44-0.649c-0.217-0.15-0.525-0.226-0.927-0.226c-0.506,0-0.868,0.071-1.087,0.212
		c-0.146,0.1-0.219,0.23-0.219,0.39c0,0.137,0.063,0.253,0.191,0.349c0.173,0.127,0.771,0.308,1.795,0.54
		c1.022,0.232,1.737,0.517,2.143,0.854c0.401,0.342,0.602,0.818,0.602,1.429c0,0.666-0.278,1.237-0.834,1.716
		s-1.379,0.718-2.468,0.718c-0.989,0-1.771-0.201-2.349-0.602C305.481,139.306,305.104,138.761,304.927,138.073z"/>
	<path d="M318.168,140.144v-1.087c-0.265,0.387-0.611,0.693-1.043,0.916c-0.43,0.223-0.885,0.335-1.363,0.335
		c-0.487,0-0.925-0.107-1.313-0.321s-0.668-0.515-0.841-0.902s-0.26-0.923-0.26-1.606v-4.594h1.921v3.336
		c0,1.021,0.035,1.646,0.105,1.876c0.071,0.23,0.2,0.413,0.387,0.547s0.424,0.202,0.711,0.202c0.328,0,0.622-0.09,0.882-0.27
		s0.438-0.403,0.533-0.67s0.144-0.919,0.144-1.958v-3.063h1.921v7.26H318.168z"/>
	<path d="M321.941,140.144v-10.021h1.921v10.021H321.941z"/>
	<path d="M329.16,132.884v1.531h-1.313v2.926c0,0.592,0.013,0.938,0.037,1.036c0.025,0.098,0.082,0.179,0.172,0.243
		c0.088,0.064,0.196,0.096,0.324,0.096c0.178,0,0.436-0.062,0.772-0.185l0.164,1.49c-0.446,0.191-0.952,0.287-1.518,0.287
		c-0.347,0-0.658-0.058-0.937-0.174s-0.482-0.267-0.611-0.451c-0.131-0.185-0.221-0.434-0.271-0.749
		c-0.041-0.223-0.062-0.674-0.062-1.354v-3.165h-0.882v-1.531h0.882v-1.442l1.928-1.121v2.563H329.16z"/>
	<path d="M330.049,136.412c0-0.638,0.157-1.255,0.472-1.853s0.76-1.053,1.337-1.367c0.576-0.314,1.22-0.472,1.931-0.472
		c1.099,0,1.998,0.356,2.7,1.07s1.053,1.614,1.053,2.704c0,1.098-0.354,2.009-1.063,2.731c-0.709,0.722-1.602,1.083-2.677,1.083
		c-0.665,0-1.3-0.15-1.903-0.451c-0.604-0.301-1.063-0.742-1.378-1.323S330.049,137.246,330.049,136.412z M332.018,136.514
		c0,0.72,0.171,1.271,0.513,1.654s0.764,0.574,1.265,0.574s0.922-0.191,1.262-0.574c0.339-0.383,0.509-0.939,0.509-1.668
		c0-0.711-0.17-1.258-0.509-1.641c-0.34-0.383-0.761-0.574-1.262-0.574s-0.923,0.191-1.265,0.574S332.018,135.794,332.018,136.514z"
		/>
	<path d="M340.884,140.144h-1.921v-7.26h1.784v1.032c0.306-0.488,0.58-0.809,0.824-0.964c0.243-0.155,0.521-0.232,0.83-0.232
		c0.438,0,0.859,0.121,1.265,0.362l-0.595,1.675c-0.323-0.209-0.624-0.314-0.902-0.314c-0.269,0-0.497,0.074-0.684,0.222
		s-0.334,0.416-0.441,0.803c-0.106,0.387-0.16,1.199-0.16,2.434V140.144z"/>
	<path d="M344.493,131.9v-1.777h1.921v1.777H344.493z M344.493,140.144v-7.26h1.921v7.26H344.493z"/>
	<path d="M349.818,135.099l-1.743-0.314c0.196-0.702,0.533-1.221,1.012-1.559s1.189-0.506,2.133-0.506
		c0.856,0,1.495,0.102,1.914,0.304s0.715,0.46,0.885,0.772c0.172,0.312,0.257,0.885,0.257,1.719l-0.021,2.242
		c0,0.638,0.031,1.108,0.092,1.412c0.063,0.303,0.177,0.628,0.346,0.974h-1.9c-0.05-0.127-0.111-0.317-0.185-0.567
		c-0.032-0.114-0.055-0.189-0.068-0.226c-0.328,0.319-0.679,0.558-1.053,0.718s-0.772,0.239-1.196,0.239
		c-0.747,0-1.336-0.203-1.768-0.608c-0.43-0.406-0.646-0.918-0.646-1.538c0-0.41,0.098-0.776,0.294-1.097s0.471-0.567,0.824-0.738
		c0.353-0.171,0.862-0.32,1.527-0.448c0.897-0.168,1.52-0.326,1.866-0.472v-0.191c0-0.369-0.091-0.632-0.273-0.79
		s-0.526-0.236-1.032-0.236c-0.342,0-0.608,0.067-0.8,0.202S349.937,134.762,349.818,135.099z M352.389,136.658
		c-0.246,0.082-0.636,0.18-1.169,0.294s-0.882,0.226-1.046,0.335c-0.251,0.178-0.376,0.403-0.376,0.677
		c0,0.269,0.101,0.501,0.301,0.697s0.456,0.294,0.766,0.294c0.347,0,0.677-0.114,0.991-0.342c0.232-0.173,0.385-0.385,0.458-0.636
		c0.05-0.164,0.075-0.476,0.075-0.937V136.658z"/>
	<path d="M355.492,138.073l1.928-0.294c0.082,0.374,0.248,0.657,0.499,0.851s0.602,0.291,1.053,0.291
		c0.497,0,0.87-0.091,1.121-0.273c0.169-0.127,0.253-0.298,0.253-0.513c0-0.146-0.046-0.267-0.137-0.362
		c-0.096-0.091-0.31-0.175-0.643-0.253c-1.55-0.342-2.531-0.654-2.946-0.937c-0.574-0.392-0.861-0.937-0.861-1.634
		c0-0.629,0.248-1.158,0.745-1.586s1.267-0.643,2.311-0.643c0.993,0,1.731,0.162,2.215,0.485s0.815,0.802,0.998,1.436l-1.812,0.335
		c-0.077-0.283-0.225-0.499-0.44-0.649c-0.217-0.15-0.525-0.226-0.927-0.226c-0.506,0-0.868,0.071-1.087,0.212
		c-0.146,0.1-0.219,0.23-0.219,0.39c0,0.137,0.063,0.253,0.191,0.349c0.173,0.127,0.771,0.308,1.795,0.54
		c1.022,0.232,1.737,0.517,2.143,0.854c0.401,0.342,0.602,0.818,0.602,1.429c0,0.666-0.278,1.237-0.834,1.716
		s-1.379,0.718-2.468,0.718c-0.989,0-1.771-0.201-2.349-0.602C356.047,139.306,355.67,138.761,355.492,138.073z"/>
	<path d="M372.049,137.833l1.914,0.321c-0.246,0.702-0.635,1.236-1.166,1.603c-0.53,0.367-1.194,0.55-1.992,0.55
		c-1.263,0-2.196-0.413-2.803-1.237c-0.479-0.661-0.718-1.495-0.718-2.502c0-1.203,0.314-2.146,0.943-2.827s1.424-1.022,2.386-1.022
		c1.08,0,1.933,0.356,2.557,1.07s0.923,1.806,0.896,3.278h-4.813c0.014,0.57,0.169,1.013,0.465,1.33s0.665,0.475,1.107,0.475
		c0.301,0,0.554-0.082,0.759-0.246S371.944,138.198,372.049,137.833z M372.158,135.892c-0.014-0.556-0.157-0.979-0.431-1.268
		s-0.606-0.434-0.998-0.434c-0.419,0-0.766,0.153-1.039,0.458s-0.408,0.72-0.403,1.244H372.158z"/>
	<path d="M197.586,158.144h-2.201l-0.875-2.276h-4.006l-0.827,2.276h-2.146l3.903-10.021h2.14L197.586,158.144z M193.86,154.179
		l-1.381-3.719l-1.354,3.719H193.86z"/>
	<path d="M205.304,158.144h-1.784v-1.066c-0.296,0.415-0.646,0.724-1.049,0.926c-0.404,0.203-0.811,0.304-1.221,0.304
		c-0.834,0-1.549-0.336-2.143-1.008c-0.596-0.672-0.893-1.61-0.893-2.813c0-1.23,0.289-2.166,0.868-2.806s1.311-0.96,2.194-0.96
		c0.812,0,1.513,0.337,2.105,1.012v-3.609h1.921V158.144z M200.177,154.357c0,0.775,0.107,1.335,0.321,1.682
		c0.31,0.501,0.743,0.752,1.299,0.752c0.442,0,0.818-0.188,1.128-0.564s0.465-0.938,0.465-1.685c0-0.834-0.15-1.435-0.451-1.801
		s-0.686-0.55-1.155-0.55c-0.456,0-0.838,0.181-1.145,0.543C200.33,153.096,200.177,153.637,200.177,154.357z"/>
	<path d="M207.054,150.884h1.771v0.991c0.634-0.77,1.388-1.155,2.263-1.155c0.465,0,0.868,0.096,1.21,0.287s0.622,0.481,0.841,0.868
		c0.319-0.387,0.663-0.677,1.032-0.868s0.764-0.287,1.183-0.287c0.533,0,0.984,0.108,1.354,0.325s0.645,0.534,0.827,0.954
		c0.132,0.31,0.198,0.811,0.198,1.504v4.642h-1.921v-4.149c0-0.72-0.066-1.185-0.198-1.395c-0.178-0.273-0.451-0.41-0.82-0.41
		c-0.269,0-0.521,0.082-0.759,0.246s-0.408,0.404-0.513,0.721s-0.157,0.817-0.157,1.5v3.486h-1.921v-3.979
		c0-0.707-0.034-1.162-0.103-1.367s-0.175-0.358-0.317-0.458c-0.145-0.1-0.339-0.15-0.585-0.15c-0.296,0-0.563,0.08-0.8,0.239
		s-0.406,0.39-0.51,0.69c-0.102,0.301-0.153,0.8-0.153,1.497v3.527h-1.921V150.884z"/>
	<path d="M219.646,149.9v-1.777h1.921v1.777H219.646z M219.646,158.144v-7.26h1.921v7.26H219.646z"/>
	<path d="M230.139,158.144h-1.921v-3.705c0-0.784-0.041-1.291-0.123-1.521s-0.215-0.409-0.4-0.537
		c-0.184-0.127-0.406-0.191-0.666-0.191c-0.333,0-0.631,0.091-0.896,0.273s-0.445,0.424-0.544,0.725
		c-0.098,0.301-0.146,0.857-0.146,1.668v3.288h-1.921v-7.26h1.784v1.066c0.634-0.82,1.431-1.23,2.393-1.23
		c0.424,0,0.812,0.076,1.162,0.229s0.616,0.348,0.797,0.584c0.18,0.237,0.305,0.506,0.375,0.807
		c0.071,0.301,0.106,0.731,0.106,1.292V158.144z"/>
	<path d="M232.087,149.9v-1.777h1.921v1.777H232.087z M232.087,158.144v-7.26h1.921v7.26H232.087z"/>
	<path d="M235.3,156.073l1.928-0.294c0.082,0.374,0.248,0.657,0.499,0.851s0.602,0.291,1.053,0.291c0.497,0,0.87-0.091,1.121-0.273
		c0.169-0.127,0.253-0.298,0.253-0.513c0-0.146-0.046-0.267-0.137-0.362c-0.096-0.091-0.31-0.175-0.643-0.253
		c-1.55-0.342-2.531-0.654-2.946-0.937c-0.574-0.392-0.861-0.937-0.861-1.634c0-0.629,0.248-1.158,0.745-1.586
		s1.267-0.643,2.311-0.643c0.993,0,1.731,0.162,2.215,0.485s0.815,0.802,0.998,1.436l-1.812,0.335
		c-0.077-0.283-0.225-0.499-0.44-0.649c-0.217-0.15-0.525-0.226-0.927-0.226c-0.506,0-0.868,0.071-1.087,0.212
		c-0.146,0.1-0.219,0.23-0.219,0.39c0,0.137,0.063,0.253,0.191,0.349c0.173,0.127,0.771,0.308,1.795,0.54
		c1.022,0.232,1.737,0.517,2.143,0.854c0.401,0.342,0.602,0.818,0.602,1.429c0,0.666-0.278,1.237-0.834,1.716
		s-1.379,0.718-2.468,0.718c-0.989,0-1.771-0.201-2.349-0.602C235.854,157.306,235.478,156.761,235.3,156.073z"/>
	<path d="M247.092,150.884v1.531h-1.313v2.926c0,0.592,0.013,0.938,0.037,1.036c0.025,0.098,0.082,0.179,0.172,0.243
		c0.088,0.064,0.196,0.096,0.324,0.096c0.178,0,0.436-0.062,0.772-0.185l0.164,1.49c-0.446,0.191-0.952,0.287-1.518,0.287
		c-0.347,0-0.658-0.058-0.937-0.174s-0.482-0.267-0.611-0.451c-0.131-0.185-0.221-0.434-0.271-0.749
		c-0.041-0.223-0.062-0.674-0.062-1.354v-3.165h-0.882v-1.531h0.882v-1.442l1.928-1.121v2.563H247.092z"/>
	<path d="M250.264,158.144h-1.921v-7.26h1.784v1.032c0.306-0.488,0.58-0.809,0.824-0.964c0.243-0.155,0.521-0.232,0.83-0.232
		c0.438,0,0.859,0.121,1.265,0.362l-0.595,1.675c-0.323-0.209-0.624-0.314-0.902-0.314c-0.269,0-0.497,0.074-0.684,0.222
		s-0.334,0.416-0.441,0.803c-0.106,0.387-0.16,1.199-0.16,2.434V158.144z"/>
	<path d="M255.309,153.099l-1.743-0.314c0.196-0.702,0.533-1.221,1.012-1.559s1.189-0.506,2.133-0.506
		c0.856,0,1.495,0.102,1.914,0.304s0.715,0.46,0.885,0.772c0.172,0.312,0.257,0.885,0.257,1.719l-0.021,2.242
		c0,0.638,0.031,1.108,0.092,1.412c0.063,0.303,0.177,0.628,0.346,0.974h-1.9c-0.05-0.127-0.111-0.317-0.185-0.567
		c-0.032-0.114-0.055-0.189-0.068-0.226c-0.328,0.319-0.679,0.558-1.053,0.718s-0.772,0.239-1.196,0.239
		c-0.747,0-1.336-0.203-1.768-0.608c-0.43-0.406-0.646-0.918-0.646-1.538c0-0.41,0.098-0.776,0.294-1.097s0.471-0.567,0.824-0.738
		c0.353-0.171,0.862-0.32,1.527-0.448c0.897-0.168,1.52-0.326,1.866-0.472v-0.191c0-0.369-0.091-0.632-0.273-0.79
		s-0.526-0.236-1.032-0.236c-0.342,0-0.608,0.067-0.8,0.202S255.427,152.762,255.309,153.099z M257.879,154.658
		c-0.246,0.082-0.636,0.18-1.169,0.294s-0.882,0.226-1.046,0.335c-0.251,0.178-0.376,0.403-0.376,0.677
		c0,0.269,0.101,0.501,0.301,0.697s0.456,0.294,0.766,0.294c0.347,0,0.677-0.114,0.991-0.342c0.232-0.173,0.385-0.385,0.458-0.636
		c0.05-0.164,0.075-0.476,0.075-0.937V154.658z"/>
	<path d="M267.989,153.031l-1.894,0.342c-0.063-0.378-0.209-0.663-0.434-0.854c-0.227-0.191-0.519-0.287-0.879-0.287
		c-0.479,0-0.86,0.165-1.145,0.496c-0.285,0.331-0.428,0.883-0.428,1.658c0,0.861,0.145,1.47,0.434,1.825
		c0.29,0.355,0.679,0.533,1.166,0.533c0.364,0,0.663-0.104,0.896-0.311s0.396-0.564,0.492-1.07l1.887,0.321
		c-0.196,0.866-0.572,1.52-1.128,1.962s-1.301,0.663-2.235,0.663c-1.062,0-1.908-0.335-2.54-1.005
		c-0.631-0.67-0.946-1.597-0.946-2.782c0-1.199,0.316-2.132,0.95-2.799s1.49-1.001,2.57-1.001c0.884,0,1.587,0.19,2.109,0.571
		C267.387,151.671,267.762,152.251,267.989,153.031z M262.814,160.899v-0.807c0.47,0.05,0.9,0.075,1.292,0.075
		c0.405,0,0.706-0.073,0.902-0.219c0.15-0.109,0.226-0.25,0.226-0.424c0-0.155-0.07-0.29-0.212-0.403s-0.36-0.171-0.656-0.171
		c-0.292,0-0.59,0.045-0.896,0.137l0.178-0.677c0.355-0.123,0.738-0.185,1.148-0.185c0.569,0,1.003,0.125,1.299,0.376
		s0.444,0.556,0.444,0.916c0,0.401-0.164,0.727-0.492,0.978c-0.442,0.342-1.075,0.513-1.9,0.513
		C263.56,161.008,263.115,160.972,262.814,160.899z"/>
	<path d="M270.881,153.099l-1.743-0.314c0.196-0.702,0.533-1.221,1.012-1.559s1.189-0.506,2.133-0.506
		c0.856,0,1.495,0.102,1.914,0.304s0.715,0.46,0.885,0.772c0.172,0.312,0.257,0.885,0.257,1.719l-0.021,2.242
		c0,0.638,0.031,1.108,0.092,1.412c0.063,0.303,0.177,0.628,0.346,0.974h-1.9c-0.05-0.127-0.111-0.317-0.185-0.567
		c-0.032-0.114-0.055-0.189-0.068-0.226c-0.328,0.319-0.679,0.558-1.053,0.718s-0.772,0.239-1.196,0.239
		c-0.747,0-1.336-0.203-1.768-0.608c-0.43-0.406-0.646-0.918-0.646-1.538c0-0.41,0.098-0.776,0.294-1.097s0.471-0.567,0.824-0.738
		c0.353-0.171,0.862-0.32,1.527-0.448c0.897-0.168,1.52-0.326,1.866-0.472v-0.191c0-0.369-0.091-0.632-0.273-0.79
		s-0.526-0.236-1.032-0.236c-0.342,0-0.608,0.067-0.8,0.202S270.999,152.762,270.881,153.099z M270.867,149.907h-0.875
		c-0.005-0.105-0.007-0.187-0.007-0.246c0-0.479,0.116-0.847,0.349-1.104s0.531-0.386,0.896-0.386c0.159,0,0.308,0.017,0.444,0.051
		s0.386,0.132,0.749,0.294c0.361,0.162,0.646,0.243,0.851,0.243c0.146,0,0.268-0.045,0.366-0.137
		c0.098-0.091,0.16-0.244,0.188-0.458h0.889c-0.005,0.615-0.119,1.055-0.346,1.319c-0.225,0.264-0.516,0.396-0.871,0.396
		c-0.155,0-0.308-0.016-0.458-0.048c-0.104-0.027-0.367-0.121-0.786-0.28s-0.725-0.239-0.916-0.239c-0.146,0-0.26,0.044-0.342,0.133
		S270.872,149.688,270.867,149.907z M273.451,154.658c-0.246,0.082-0.636,0.18-1.169,0.294s-0.882,0.226-1.046,0.335
		c-0.251,0.178-0.376,0.403-0.376,0.677c0,0.269,0.101,0.501,0.301,0.697s0.456,0.294,0.766,0.294c0.347,0,0.677-0.114,0.991-0.342
		c0.232-0.173,0.385-0.385,0.458-0.636c0.05-0.164,0.075-0.476,0.075-0.937V154.658z"/>
	<path d="M276.787,154.412c0-0.638,0.157-1.255,0.472-1.853s0.76-1.053,1.337-1.367c0.576-0.314,1.22-0.472,1.931-0.472
		c1.099,0,1.998,0.356,2.7,1.07s1.053,1.614,1.053,2.704c0,1.098-0.354,2.009-1.063,2.731c-0.709,0.722-1.602,1.083-2.677,1.083
		c-0.665,0-1.3-0.15-1.903-0.451c-0.604-0.301-1.063-0.742-1.378-1.323S276.787,155.246,276.787,154.412z M278.756,154.514
		c0,0.72,0.171,1.271,0.513,1.654s0.764,0.574,1.265,0.574s0.922-0.191,1.262-0.574c0.339-0.383,0.509-0.939,0.509-1.668
		c0-0.711-0.17-1.258-0.509-1.641c-0.34-0.383-0.761-0.574-1.262-0.574s-0.923,0.191-1.265,0.574S278.756,153.794,278.756,154.514z"
		/>
	<path d="M296.331,158.144h-1.784v-1.066c-0.296,0.415-0.646,0.724-1.049,0.926c-0.404,0.203-0.811,0.304-1.221,0.304
		c-0.834,0-1.549-0.336-2.143-1.008c-0.596-0.672-0.893-1.61-0.893-2.813c0-1.23,0.289-2.166,0.868-2.806s1.311-0.96,2.194-0.96
		c0.812,0,1.513,0.337,2.105,1.012v-3.609h1.921V158.144z M291.204,154.357c0,0.775,0.107,1.335,0.321,1.682
		c0.31,0.501,0.743,0.752,1.299,0.752c0.442,0,0.818-0.188,1.128-0.564s0.465-0.938,0.465-1.685c0-0.834-0.15-1.435-0.451-1.801
		s-0.686-0.55-1.155-0.55c-0.456,0-0.838,0.181-1.145,0.543C291.357,153.096,291.204,153.637,291.204,154.357z"/>
	<path d="M302.429,155.833l1.914,0.321c-0.246,0.702-0.635,1.236-1.166,1.603c-0.53,0.367-1.194,0.55-1.992,0.55
		c-1.263,0-2.196-0.413-2.803-1.237c-0.479-0.661-0.718-1.495-0.718-2.502c0-1.203,0.314-2.146,0.943-2.827s1.424-1.022,2.386-1.022
		c1.08,0,1.933,0.356,2.557,1.07s0.923,1.806,0.896,3.278h-4.813c0.014,0.57,0.169,1.013,0.465,1.33s0.665,0.475,1.107,0.475
		c0.301,0,0.554-0.082,0.759-0.246S302.324,156.198,302.429,155.833z M302.538,153.892c-0.014-0.556-0.157-0.979-0.431-1.268
		s-0.606-0.434-0.998-0.434c-0.419,0-0.766,0.153-1.039,0.458s-0.408,0.72-0.403,1.244H302.538z"/>
	<path d="M316.326,154.459l1.962,0.622c-0.301,1.094-0.801,1.906-1.5,2.437c-0.7,0.531-1.588,0.796-2.663,0.796
		c-1.331,0-2.425-0.455-3.281-1.364s-1.285-2.152-1.285-3.729c0-1.668,0.431-2.963,1.292-3.886s1.994-1.384,3.397-1.384
		c1.226,0,2.222,0.362,2.987,1.087c0.456,0.428,0.798,1.043,1.025,1.846l-2.003,0.479c-0.118-0.52-0.366-0.93-0.741-1.23
		c-0.377-0.301-0.833-0.451-1.371-0.451c-0.743,0-1.346,0.267-1.809,0.8c-0.462,0.533-0.693,1.397-0.693,2.591
		c0,1.267,0.228,2.169,0.684,2.707s1.048,0.807,1.777,0.807c0.538,0,1-0.171,1.388-0.513S316.157,155.193,316.326,154.459z"/>
	<path d="M319.566,154.412c0-0.638,0.157-1.255,0.472-1.853s0.76-1.053,1.337-1.367c0.576-0.314,1.22-0.472,1.931-0.472
		c1.099,0,1.998,0.356,2.7,1.07s1.053,1.614,1.053,2.704c0,1.098-0.354,2.009-1.063,2.731c-0.709,0.722-1.602,1.083-2.677,1.083
		c-0.665,0-1.3-0.15-1.903-0.451c-0.604-0.301-1.063-0.742-1.378-1.323S319.566,155.246,319.566,154.412z M321.535,154.514
		c0,0.72,0.171,1.271,0.513,1.654s0.764,0.574,1.265,0.574s0.922-0.191,1.262-0.574c0.339-0.383,0.509-0.939,0.509-1.668
		c0-0.711-0.17-1.258-0.509-1.641c-0.34-0.383-0.761-0.574-1.262-0.574s-0.923,0.191-1.265,0.574S321.535,153.794,321.535,154.514z"
		/>
	<path d="M335.166,158.144h-1.921v-3.705c0-0.784-0.041-1.291-0.123-1.521s-0.215-0.409-0.4-0.537
		c-0.184-0.127-0.406-0.191-0.666-0.191c-0.333,0-0.631,0.091-0.896,0.273s-0.445,0.424-0.544,0.725
		c-0.098,0.301-0.146,0.857-0.146,1.668v3.288h-1.921v-7.26h1.784v1.066c0.634-0.82,1.431-1.23,2.393-1.23
		c0.424,0,0.812,0.076,1.162,0.229s0.616,0.348,0.797,0.584c0.18,0.237,0.305,0.506,0.375,0.807
		c0.071,0.301,0.106,0.731,0.106,1.292V158.144z"/>
	<path d="M343.772,158.144h-1.784v-1.066c-0.296,0.415-0.646,0.724-1.049,0.926c-0.404,0.203-0.811,0.304-1.221,0.304
		c-0.834,0-1.549-0.336-2.143-1.008c-0.596-0.672-0.893-1.61-0.893-2.813c0-1.23,0.289-2.166,0.868-2.806s1.311-0.96,2.194-0.96
		c0.812,0,1.513,0.337,2.105,1.012v-3.609h1.921V158.144z M338.646,154.357c0,0.775,0.107,1.335,0.321,1.682
		c0.31,0.501,0.743,0.752,1.299,0.752c0.442,0,0.818-0.188,1.128-0.564s0.465-0.938,0.465-1.685c0-0.834-0.15-1.435-0.451-1.801
		s-0.686-0.55-1.155-0.55c-0.456,0-0.838,0.181-1.145,0.543C338.799,153.096,338.646,153.637,338.646,154.357z"/>
	<path d="M345.222,154.412c0-0.638,0.157-1.255,0.472-1.853s0.76-1.053,1.337-1.367c0.576-0.314,1.22-0.472,1.931-0.472
		c1.099,0,1.998,0.356,2.7,1.07s1.053,1.614,1.053,2.704c0,1.098-0.354,2.009-1.063,2.731c-0.709,0.722-1.602,1.083-2.677,1.083
		c-0.665,0-1.3-0.15-1.903-0.451c-0.604-0.301-1.063-0.742-1.378-1.323S345.222,155.246,345.222,154.412z M347.19,154.514
		c0,0.72,0.171,1.271,0.513,1.654s0.764,0.574,1.265,0.574s0.922-0.191,1.262-0.574c0.339-0.383,0.509-0.939,0.509-1.668
		c0-0.711-0.17-1.258-0.509-1.641c-0.34-0.383-0.761-0.574-1.262-0.574s-0.923,0.191-1.265,0.574S347.19,153.794,347.19,154.514z"/>
	<path d="M354.074,150.884h1.771v0.991c0.634-0.77,1.388-1.155,2.263-1.155c0.465,0,0.868,0.096,1.21,0.287s0.622,0.481,0.841,0.868
		c0.319-0.387,0.663-0.677,1.032-0.868s0.764-0.287,1.183-0.287c0.533,0,0.984,0.108,1.354,0.325s0.645,0.534,0.827,0.954
		c0.132,0.31,0.198,0.811,0.198,1.504v4.642h-1.921v-4.149c0-0.72-0.066-1.185-0.198-1.395c-0.178-0.273-0.451-0.41-0.82-0.41
		c-0.269,0-0.521,0.082-0.759,0.246s-0.408,0.404-0.513,0.721s-0.157,0.817-0.157,1.5v3.486h-1.921v-3.979
		c0-0.707-0.034-1.162-0.103-1.367s-0.175-0.358-0.317-0.458c-0.145-0.1-0.339-0.15-0.585-0.15c-0.296,0-0.563,0.08-0.8,0.239
		s-0.406,0.39-0.51,0.69c-0.102,0.301-0.153,0.8-0.153,1.497v3.527h-1.921V150.884z"/>
	<path d="M366.522,149.996l0.943-2.044h2.153l-1.88,2.044H366.522z M366.666,158.144v-7.26h1.921v7.26H366.666z"/>
	<path d="M377.159,158.144h-1.921v-3.705c0-0.784-0.041-1.291-0.123-1.521s-0.215-0.409-0.4-0.537
		c-0.184-0.127-0.406-0.191-0.666-0.191c-0.333,0-0.631,0.091-0.896,0.273s-0.445,0.424-0.544,0.725
		c-0.098,0.301-0.146,0.857-0.146,1.668v3.288h-1.921v-7.26h1.784v1.066c0.634-0.82,1.431-1.23,2.393-1.23
		c0.424,0,0.812,0.076,1.162,0.229s0.616,0.348,0.797,0.584c0.18,0.237,0.305,0.506,0.375,0.807
		c0.071,0.301,0.106,0.731,0.106,1.292V158.144z"/>
	<path d="M379.107,149.9v-1.777h1.921v1.777H379.107z M379.107,158.144v-7.26h1.921v7.26H379.107z"/>
	<path d="M382.553,154.412c0-0.638,0.157-1.255,0.472-1.853s0.76-1.053,1.337-1.367c0.576-0.314,1.22-0.472,1.931-0.472
		c1.099,0,1.998,0.356,2.7,1.07s1.053,1.614,1.053,2.704c0,1.098-0.354,2.009-1.063,2.731c-0.709,0.722-1.602,1.083-2.677,1.083
		c-0.665,0-1.3-0.15-1.903-0.451c-0.604-0.301-1.063-0.742-1.378-1.323S382.553,155.246,382.553,154.412z M384.521,154.514
		c0,0.72,0.171,1.271,0.513,1.654s0.764,0.574,1.265,0.574s0.922-0.191,1.262-0.574c0.339-0.383,0.509-0.939,0.509-1.668
		c0-0.711-0.17-1.258-0.509-1.641c-0.34-0.383-0.761-0.574-1.262-0.574s-0.923,0.191-1.265,0.574S384.521,153.794,384.521,154.514z"
		/>
	<path d="M390.872,156.073l1.928-0.294c0.082,0.374,0.248,0.657,0.499,0.851s0.602,0.291,1.053,0.291
		c0.497,0,0.87-0.091,1.121-0.273c0.169-0.127,0.253-0.298,0.253-0.513c0-0.146-0.046-0.267-0.137-0.362
		c-0.096-0.091-0.31-0.175-0.643-0.253c-1.55-0.342-2.531-0.654-2.946-0.937c-0.574-0.392-0.861-0.937-0.861-1.634
		c0-0.629,0.248-1.158,0.745-1.586s1.267-0.643,2.311-0.643c0.993,0,1.731,0.162,2.215,0.485s0.815,0.802,0.998,1.436l-1.812,0.335
		c-0.077-0.283-0.225-0.499-0.44-0.649c-0.217-0.15-0.525-0.226-0.927-0.226c-0.506,0-0.868,0.071-1.087,0.212
		c-0.146,0.1-0.219,0.23-0.219,0.39c0,0.137,0.063,0.253,0.191,0.349c0.173,0.127,0.771,0.308,1.795,0.54
		c1.022,0.232,1.737,0.517,2.143,0.854c0.401,0.342,0.602,0.818,0.602,1.429c0,0.666-0.278,1.237-0.834,1.716
		s-1.379,0.718-2.468,0.718c-0.989,0-1.771-0.201-2.349-0.602C391.427,157.306,391.05,156.761,390.872,156.073z"/>
</g>
<g>
</g>
<g>
</g>
<g>
</g>
<g>
</g>
<g>
</g>
<g>
</g>
</svg>
